/* XPM */
static char *result[] = {
/* columns rows colors chars-per-pixel */
"32 32 6 1 ",
"  c black",
". c #3A0911",
"X c #811426",
"o c #A11B31",
"O c white",
"+ c None",
/* pixels */
"++++++++++++++++++ +++++++++++++",
"++++++++++++++++++++++++++++++++",
"++++++++++++++++++++++++++++++++",
"++++++++++++++++++++++++++++++++",
"++++++++++++++++++++++++++++++++",
"++++++++++++++++++++++++++++++++",
"+++++++++.......++++++++++++++++",
"++++++++.Xoooooo.+++++++++++++++",
"+++++++.Xooo....o.++++++++++++++",
"++++++.Xooo.    .o.+++++++++++++",
"++++++.Xoo.      .o.++++++++++++",
"+++++.XXoo. O   O.o.++++++++++++",
"+++++.XXXo. O   O.o.++++++++++++",
"+++++.X.Xo. O   O.o.++++++++++++",
"+++++.X.Xo.      .X.++++++++++++",
"++++++..XXo.     .X.++++++++++++",
"++++++++.XXX.   .X.+++++++++++++",
"+++++++++..XX...X.++++++++++++++",
"++++++++.XXXoooooX.+++++++++++++",
"+++++++.XoooooooooX.++++++++++++",
"+++++++.XoooooooooX.++++++++++++",
"+++++++.ooooooooooo.++++++++++++",
"+++++++.oooooooooooX.+++++++++++",
"+++++++.XoooooXooooX.+++++++++++",
"+++++++.XooooooXooooX.++++++++++",
"+++++++.XoooooX.XooXXX.+++++++++",
"+++++++.XXoXoXX.XXoXXX.+++++++++",
"+++++++.XXXoXX. .XXXXX.+++++++++",
"++++++++.XXXX.  .XX.X.++++++++++",
"++++++++.X.XX.   .XX.+++++++++++",
"++++++++..+...++ ...++++++++++++",
"++++++++++++ ++++  +++++++++++++"
};
