/* XPM */
static char *dummy[]={
"32 32 8 1",
". c None",
"a c #131327",
"# c #23427e",
"f c #2a60c9",
"c c #347ad0",
"b c #3cb1c8",
"e c #82ebcf",
"d c #c9fff1",
"................................",
"................................",
"................................",
"..........##########aa..........",
"..........##########aa..........",
"........##bbbbbbbbbbccaa........",
"........##bbbbbbbbbbccaa........",
"......##ddbbbbbbbbcccceeaa......",
"......##ddbbbbbbbbcccceeaa......",
"....##eeeeddddddeeeeee##ffaa....",
"....##eeeeddddddeeeeee##ffaa....",
"....##eeeeddffffff##bbffccaa....",
"....##eeeeddffffff##bbffccaa....",
"....##eeeeddffcccc##bbffccaa....",
"....##eeeeddffcccc##bbffccaa....",
"....aaeeeeddffcc####bbffccaa....",
"....aaeeeeddffcc####bbffccaa....",
"....aabbeedd########cc##ffaa....",
"....aabbeedd########cc##ffaa....",
"....aabbbbeebbbbbbcccc####aa....",
"....aabbbbeebbbbbbcccc####aa....",
"......aaeeff##########ccaa......",
"......aaeeff##########ccaa......",
"........aa############aa........",
"........aa############aa........",
"..........aaaaaaaaaaaa..........",
"..........aaaaaaaaaaaa..........",
"................................",
"................................",
"................................",
"................................",
"................................"};
