/* XPM */
static char *dummy[]={
"32 32 9 1",
". c None",
"# c None",
"g c None",
"b c None",
"d c #000000",
"a c #3a0911",
"f c #811426",
"c c #a11b31",
"e c #ffffff",
"................................",
"................................",
"................................",
"................................",
"...........###aaaa..............",
"............bacccca.............",
"...........#acaaaaca............",
"..........#acaddddaca...........",
"..........acaddddddaca..........",
".......#..acaddddddaca..........",
".......#..acadeddedaca..........",
".......#..acadeddedaca..........",
".......#..acaddddddafa..........",
"...........acadddddafa..........",
"...........affadddafa...........",
"...........#affaaafa............",
"............afcccccfa...........",
"...........afcccccccfa..........",
"...........afcccccccfa..........",
"...........afcccccccca..........",
"..........afccccccccca..........",
"..........afccccfccccfa.........",
"..........afccccfccccfa.........",
"..........afcccfafccffa.........",
".......#..affcffaffcffa.........",
".......#.affcffadaffffa.........",
".......#gaffffaddaffafa.........",
"........#afaffadddaffa..........",
".........aa.aaa..daaa...........",
"............dd....d.............",
".............d....d.............",
".............d....d............."};
