/* XPM */
static char *dummy[]={
"32 32 6 1",
". c None",
"# c None",
"c c #000000",
"a c #3a0911",
"d c #811426",
"b c #a11b31",
"................................",
"................................",
"................................",
"................................",
"................................",
"...........##aaaaa..............",
"............abbbbba.............",
"...........abbaaaaba............",
"..........abbaccccaba...........",
"..........abaccccccaba..........",
".......#..abaccccccaba..........",
".......#..abaccccccaba..........",
".......#..adaccccccaba..........",
".......#..adaccccccada..........",
"..........adbacccccada..........",
"...........addacccada...........",
"...........#addaaada............",
"............adbbbbbda...........",
"...........adbbbbbbda...........",
"...........adbbbbbbbda..........",
"...........adbbbbbbbda..........",
"...........adbbbbbbbda..........",
"..........adbbbbdbbbbda.........",
"..........adbbbbdbbbbda.........",
"..........adbbbdadbbdda.........",
".......#..addbddaddbdda.........",
".......#.addbddacadddda.........",
".......#.addddaccaddada.........",
".........adaddacccadda..........",
".........#a.aaa..caaa...........",
".............c....c.............",
".............c....c............."};
