/* XPM */
static char *result[] = {
/* columns rows colors chars-per-pixel */
"32 32 6 1 ",
"  c #2F2E2F",
". c #85578E",
"X c #BE9BB0",
"o c #564064",
"O c #3E2F5A",
"+ c white",
/* pixels */
"   OO                           ",
" .X.......... ................. ",
" X........... ..oo.oo...oo...o. ",
" X.oooo.ooo.. .ooooooo.oooo.oo. ",
" X.oooooooOO. .OOooooooooooooo. ",
" X.ooOOOOOOOO OOOOOOooOOOOOoooo ",
" .XoOOOOOOOO   OOOOOOOOOOOOOooO ",
"                                ",
" oX...........................o ",
" X.............oo.............. ",
" X.ooo.oo.ooo.oooo.o..o..o.oo.. ",
" Xo.oooooooOoooOOOoooooooooo.o. ",
" X.ooooOooOOOooooooOOooOoOooooo ",
" X.oooOOOOOOOOOOooOOOOOOOOOoooo ",
" OXoOOOOOOOOOOOOOOOOOOOOOOOOooO ",
"                                ",
" .X.......   .................o ",
" X.....o... ......o............ ",
" X..o.ooo.. ..oo.oooo.oo...o... ",
" X.ooOoooo. .oooooOooOooo.o.o.. ",
" X..ooOoooO OooooOOoooOooooooo. ",
" X.oooOOoOO OOoOOOooOoooOOooooo ",
" X.ooOOOOOO OOOOOOOOOOoOOOOoooo ",
" OXOOOOOOO   OOOOOOOOOOOOOOOooO ",
"                                ",
" .X...........................o ",
" X..o........o...o............. ",
" X...o...oo.ooo.ooo.....oo..o.. ",
"oX.oo.O.OooooooOoooo.o.ooooo... ",
" X.oooOOOOoOOoooooOoooooOooooo. ",
" X..ooOOOOOOOOX.o.XOOOOOOOoo..X ",
" oXXXXXXXXXXXXoo...XXXXXXXXXXX.O"
};
