/* XPM */
static char *result[] = {
/* columns rows colors chars-per-pixel */
"32 32 6 1 ",
"  c #2F2E2F",
". c #85578E",
"X c #BE9BB0",
"o c #564064",
"O c #3E2F5A",
"+ c white",
/* pixels */
"   OO                           ",
" ............ ...............X  ",
" ............ ..oo.oo...oo...oX ",
" ..oooo.ooo.. .ooooooo.oooo.ooX ",
" .ooooooooOO. .OOoooooooooooooX ",
" o.ooOOOOOOOO OOOOOOooOOOOOoooX ",
" OooOOOOOOOO   OOOOOOOOOOOOOoX  ",
"                                ",
" o...........................X  ",
" ..............oo.............X ",
" ..ooo.oo.ooo.oooo.o..o..o.oo.X ",
" .o.oooooooOoooOOOoooooooooo.oX ",
" .oooooOooOOOooooooOOooOoOooooX ",
" o.oooOOOOOOOOOOooOOOOOOOOOoooX ",
" OooOOOOOOOOOOOOOOOOOOOOOOOOoX  ",
"                                ",
" o........   ................X  ",
" ......o... ......o...........X ",
" ...o.ooo.. ..oo.oooo.oo...o..X ",
" ..ooOoooo. .oooooOooOooo.o.o.X ",
" .o.ooOoooO OooooOOoooOoooooooX ",
" .ooooOOoOO OOoOOOooOoooOOooooX ",
" o.ooOOOOOO OOOOOOOOOOoOOOOoo.X ",
" OoOOOOOOO   OOOOOOOOOOOOOOOoX  ",
"                                ",
" o...........................X  ",
" ...o........o...o............X ",
" ....o...oo.ooo.ooo.....oo..o.X ",
" ..oo.O.OooooooOoooo.o.ooooo..X ",
" X.oooOOOOoOOo.oooOoooooOoooooX ",
" X..ooOOOOOOOXX.XXOOOOOOOOoo..X ",
" oXXXXXXXXXXXX.o.XXXXXXXXXXXXX  "
};
