/* XPM */
static char *result[] = {
/* columns rows colors chars-per-pixel */
"32 32 6 1 ",
"  c #2F2E2F",
". c #85578E",
"X c #BE9BB0",
"o c #564064",
"O c #3E2F5A",
"+ c white",
/* pixels */
"                                ",
" .XXXXXXXXXX. .XXXXXXXXXXXXXXX. ",
" X..........X X.....o...o.....X ",
" X.oooo.ooo.. ..oo.ooo.oooo.o.. ",
" XooooooooOO. .OOooooooooooooo. ",
" X.ooOOOOOOOO OOOOOOooOOOOOoooo ",
" oXoOOOOOOOO   OOOOOOOOOOOOOooO ",
"                                ",
" .X...........................o ",
" X.............oo.............. ",
" X.ooo.oo.ooo.oooo.o..o..o.oo.. ",
" X..oooooooOoooOOOoooooooooo.o. ",
" XoooooOooOOOooooooOOooOoOooooo ",
" X.oooOOOOOOOOOOooOOOOOOOOOoooo ",
" OXoOOOOOOOOOOOOOOOOOOOOOOOOooO ",
"                                ",
" .X.......   .................o ",
" X.....o... ......o............ ",
" X..o.ooo.. ..oo.oooo.oo...o... ",
" X.ooOoooo. .oooooOooOooo.o.o.. ",
" Xo.ooOoooO OooooOOoooOooooooo. ",
" X.oooOOoOO OOoOOOooOoooOOooooo ",
" X.ooOOOOOO OOOOOOOOOOoOOOOoooo ",
" OXoOOOOOO   OOOOOOOOOOOOOOOooO ",
"                                ",
" .X...........................o ",
" X..o........o...o............. ",
" X...o...oo.ooo.ooo.....oo..o.. ",
" X.oo.O.OooooooOoooo.o.ooooo... ",
" XooooOOOOoOOoooooOoooooOooooo. ",
" X.ooOOOOOOOOOOOoOOOOOOOOOooooo ",
" oXOOOOOOOOOOOOOOOOOOOOOOOOOooO "
};
