/* XPM */
static char *result[] = {
/* columns rows colors chars-per-pixel */
"32 32 6 1 ",
"  c #2F2E2F",
". c #85578E",
"X c #BE9BB0",
"o c #564064",
"O c #3E2F5A",
"+ c white",
/* pixels */
"                                ",
" .XXXXXXXXXX. .XXXXXXXXXXXXXXX. ",
" X..........X X.....o...o.....X ",
" ..oooo.ooo.. ..oo.ooo.oooo.o.X ",
" .ooooooooOO. .OOoooooooooooooX ",
" o.ooOOOOOOOO OOOOOOooOOOOOoo.X ",
" OooOOOOOOOO   OOOOOOOOOOOOOoXo ",
"                                ",
" o...........................Xo ",
" ..............oo.............X ",
" ..ooo.oo.ooo.oooo.o..o..o.oo.X ",
" .o.oooooooOoooOOOoooooooooo.oX ",
" .oooooOooOOOooooooOOooOoOooooX ",
" o.oooOOOOOOOOOOooOOOOOOOOOoooX ",
" OooOOOOOOOOOOOOOOOOOOOOOOOOoXo ",
"                             o  ",
" o........   ................Xo ",
" ......o... ......o...........X ",
" ...o.ooo.. ..oo.oooo.oo...o..X ",
" ..ooOoooo. .oooooOooOooo.o.o.X ",
" .o.ooOoooO OooooOOoooOoooooooX ",
" .ooooOOoOO OOoOOOooOoooOOooooX ",
" o.ooOOOOOO OOOOOOOOOOoOOOOoooX ",
" OoOOOOOOO   OOOOOOOOOOOOOOOoXO ",
"                                ",
" o...........................Xo ",
" ...o........o...o............X ",
" ....o...oo.ooo.ooo.....oo..o.X ",
" ..oo.O.OooooooOoooo.o.ooooo..X ",
" .ooooOOOOoOOoooooOoooooOoooooX ",
" o.ooOOOOOOOOOOOoOOOOOOOOOooooX ",
" OoOOOOOOOOOOOOOOOOOOOOOOOOOoXO "
};
