/* XPM */
static char *result[] = {
/* columns rows colors chars-per-pixel */
"32 32 6 1 ",
"  c #2F2E2F",
". c #3E2F5A",
"X c #564064",
"o c #85578E",
"O c #BE9BB0",
"+ c white",
/* pixels */
" .XX.........................X. ",
" XXXXX.........X...........XXoX ",
" oXXXXX.XXXXX.XXXXX..X....XXXXo ",
" oooXXXXXoXoXXXX.XXXXXX.o.oXXoo ",
" ooXooXXoooooXXXoXXXoXXoooXoooo ",
" oooooooooooooXoooXooooooooXooo ",
" XooooooooooooooooooooooooooooX ",
"                                ",
" .XX...............   .......X. ",
" XXXX....X.......... ......XXoX ",
" XXXXX..XXX.XX...X.. ..X..XXXXo ",
" oXXXXXXX.XXX..XXXX. .XXX.XXoXo ",
" ooXoXoXXX.XX.XXXXXo oXXXX.XXoo ",
" oooXoooXXoXXXXoXXoo ooXXXoXooo ",
" ooooooooooooXoooooo oooXoooooo ",
" Xooooooooooooooooo   ooooooooX ",
"                                ",
" .XX........................XX. ",
" XXXX.........XX..........XXXoX ",
" XXXXX.X.XX..XXXXXX...XX.XXXXXo ",
" oXoXXXXXXXXXX...XXX.XXXXXXXoXo ",
" ooXXoXooXooXoXXXXoXXXoXXoXXXoo ",
" ooooooooooooooXXoooooooooooooo ",
" XooooooooooooooooooooooooooooX ",
"                                ",
" .XX.............   ........XX. ",
" XXXX.....XX...... ........XXoX ",
" oXXXXXXXXXXXXX..o o..XXXXXXXXo ",
" ooXoXXXXoXXXoXXoo ooXXXoXXXXoo ",
" OoooooXoooXoooooO OooooooooooO ",
" oOOOOOOOOOOOOOOOo oOOOOOOOOOOo ",
"                                "
};
