/* XPM */
static char *result[] = {
/* columns rows colors chars-per-pixel */
"32 32 6 1 ",
"  c #2F2E2F",
". c #85578E",
"X c #BE9BB0",
"o c #564064",
"O c #3E2F5A",
"+ c white",
/* pixels */
"                                ",
" ..oo.....o.. ...o......o...... ",
" ..ooo..ooo.. ..oOo.o..ooo.ooo.O",
" .ooOooooooo. .oOoooooooooooOoo ",
" .ooOOOOooOO. .OOooOOOOOOoOOOo. ",
" o.ooOOOOOOOO OOOOOOOOOOOOOOOoo ",
" OooOOOOOOOO   OOOOOOOOOOOOOOoO ",
"                                ",
" o............................o ",
" ..............oo.............. ",
" ..ooo.oo.ooo.oooo.o..o..o.oo.. ",
" .o.oooooooOoooOOOoooooooooo.o. ",
" .oooooOooOOOooooooOOooOoOooooo ",
" o.oooOOOOOOOOOOooOOOOOOOOOoooo ",
" OooOOOOOOOOOOOOOOOOOOOOOOOOooO ",
"                                ",
" o........   .................o ",
" ......o... ......o............ ",
" ...o.ooo.. ..oo.oooo.oo...o... ",
" ..ooOoooo. .oooooOooOooo.o.o.. ",
" .o.ooOoooO OooooOOoooOooooooo. ",
" .ooooOOoOO OOoOOOooOoooOOooooo ",
" o.ooOOOOOO OOOOOOOOOOoOOOOoooo ",
" OoOOOOOOO   OOOOOOOOOOOOOOOooO ",
"                                ",
" o............................o ",
" ...o........o...o............. ",
" ....o...oo.ooo.ooo.....oo..o.. ",
" ..oo.O.OooooooOoooo.o.ooooo... ",
" .ooooOOOOoOOoooooOoooooOooooo. ",
" o.ooOOOOOOOOOOOoOOOOOOOOOooooo ",
" OoOOOOOOOOOOOOOOOOOOOOOOOOOooO "
};
