/* XPM */
static char *result[] = {
/* columns rows colors chars-per-pixel */
"32 32 6 1 ",
"  c #2F2E2F",
". c #85578E",
"X c #BE9BB0",
"o c #564064",
"O c #3E2F5A",
"+ c white",
/* pixels */
"                                ",
" .X..oO o...ooO o....ooO o....oO",
" X..ooo ...oooo ....oooo ....ooo",
" X.oooo ..o.ooo ...ooooo ..o.ooo",
" X..ooO ..ooooO ..o.oooO ...oooO",
" X.ooOO ...ooOO ...oooOO ...oooO",
" X.ooOO ..ooOOO ....oOOO ..oooOO",
" XoooOO ...ooOO ...ooOOO ..ooOOO",
" X.ooOO ...oOOO ..ooooOO ...ooOO",
" X..oOO ..oooOO ..ooOooO ....oOO",
" X.oooO ...ooOO ...OooOO ...ooOO",
" XooooO ...oOOO ..oooOOO ....oOO",
" X.ooOO ..ooOOO ..ooooOO ...ooOO",
" X..oOO ...ooOO .ooOOoOO ..ooOOO",
" X.ooOO ..oOooO ..ooOOOO .ooooOO",
" X.oOOO .ooOooO ...ooOOO ..ooooO",
" X..OOO .ooOoOO ..oooOOO ...OoOO",
" .X..O  ..oooOO ..ooooOO ..oooOO",
"        ...ooOO ...ooOOO .ooooOO",
" .X..O  ..ooOOO  ...OOO  ..ooOOO",
" X..OOO ..oOOOO          ...oOOO",
" X.oOOO ..ooOOO  ...OOO  ..oooOO",
" X.ooOO ...ooOO ...ooOOO ..ooOOO",
" X.ooOO ..oooOO ..ooooOO ...OOOO",
" X..oOO ..ooOOO .ooooOOO ....OOO",
" X.ooOO ...ooOO ..ooOOOO ...OOOO",
" X.ooOO ..ooooO ...OooOO ..o.oOO",
" X.oooO ..ooooO ..oooooO .o.oooO",
" X.oooo ..o.ooo ...o.ooO ...oooO",
" X..o.o ...oo.o ....oo.o ....o.o",
" .X..oO o....oO o.....oO o....oO",
"                                "
};
