/* XPM */
static char *result[] = {
/* columns rows colors chars-per-pixel */
"32 32 6 1 ",
"  c #2F2E2F",
". c #3E2F5A",
"X c #564064",
"o c #85578E",
"O c #BE9BB0",
"+ c white",
/* pixels */
"                                ",
".XooooX .XoooooX .XooooX .XooOo ",
"XoXoooo XoXXoooo XoXXooo XoXooO ",
".XXXooo .XXoXooo XXXoXoo XXXXoO ",
".XXXoXo .XXXXXoo .XXXXoo .XXXoO ",
"..XoXoo ..XX.ooo .XXXXoo ..XXoO ",
"....ooo ....XXoo ..XXooo ..XXoO ",
"...oooo ...XXXXo ...XXoo ..XooO ",
"....ooo ..XXXXoo ..XXXoo ..XXoO ",
"...XXoo ...XXooo ..XXooo ..XXoO ",
"..XXXoo  ...ooo  ...XXoo ...XoO ",
"...Xooo          ....Xoo ...ooO ",
"...XXoo  ...ooo  ...XXoo  .ooOo ",
"..XXXXo ...XXooo ..XXooo        ",
"..XXXoo ..XXXXoo ..XXXoo  .ooOo ",
"..X.ooo ...XXXoo ..X.XXo ...ooO ",
".XXXXoo ...XXooo .XX.XXo ...XoO ",
"..XXXXo ....XXoo .XX.Xoo ..XXoO ",
"...XXoo ..X..XXo ..XXooo ..XooO ",
"..XXooo ..XXXXoo ...XXoo ..XXoO ",
"..Xoooo ...XXXoo ...Xooo .XXXXO ",
"..XXooo ..XX.ooo ..XXooo .XXXoO ",
"..Xoooo .XX.XXoo ..XXXoo ..XooO ",
"..XXooo ..XXXXoo ...Xooo ..XXoO ",
"...XXoo ...XXooo ..XXooo ..XXXO ",
"..XXXoo ...Xoooo ...XXoo ..XXoO ",
".XXXooo ..XXXooo ..XXooo ..XXoO ",
".XXXooo .XXXoXoo .XXXXoo .XXooO ",
"XXXoXoo XXXXXooo XXXoXoo XXXXoO ",
"XXXoooo XXXXoooo XXXXooo XXXooO ",
".XooooX .XXooooX .XXoooX .XooOo ",
"                                "
};
