/* XPM */
static char *dummy[]={
"32 32 5 1",
"a c #271313",
"b c #3a2d2d",
". c #3e0b0b",
"# c #683434",
"c c #cab500",
"................................",
".##############################.",
".#........a....##...a.........#.",
".#.b#####.a....##...aa.#bbbb#.#.",
".#.b....#.a..#b####..a.#....#.#.",
".#.baa.a...##.bb#..##....aa.#.#.",
".#.#.a.a.##....b#....##..a..#.b.",
".#.##...#......##..aa..#...##.b.",
".#.#..##...a...##.aa....#b..#.b.",
".b...#.....a...b#.a.a..#..#...b.",
".b###...b..a...##.a.a..#aa.###b.",
".b...aa.b..a.a.##.a.a..ba.a...#.",
".b.a.a..b....a.#b.aaa..ba.aa..#.",
".b.a...a#....a.#b......b...a..#.",
".#.a....#..aaa.#b....a.#...aa.#.",
".#.a.####.aaa..##....a.####.a.#.",
".#.a.b.....ccc.##.ccca....#...#.",
".b.a.b..a..c...##...c.aa..#.a.#.",
".b.a.#..a..c...b#...c...aab.a.#.",
".b...#..aa.c...b#...c....ab.a.#.",
".b...#...a.ccc.b#.ccc.a...#.a.b.",
".b.a.b..aa.#...bb...#.a...#.a.b.",
".#.a.b..aa.#.a.##.a.#.aa..#.a.b.",
".#.a.b..a.##...##.a.##.a..#.a.#.",
".#.a.#....b.aa.##a...#.a..#.a.#.",
".b.a.#....b.a..##a...#....#...#.",
".b.a.#..a.b.aa.#b....#.a..#...#.",
".#.a.#..a.#..a.#b....#.aa.#...#.",
".#...#..a.#..a.#b....#..a.#...#.",
".#.............##.............#.",
".###bbbb######bb######bbbbbbbbb.",
"................................"};
