/* XPM */
static char *dummy[]={
"64 128 39 1",
". c None",
"o c #3a3a50",
"I c #3d3d53",
"p c #3e3e54",
"m c #404057",
"K c #443d4e",
"c c #46465e",
"F c #473d4f",
"u c #474860",
"b c #4b4c64",
"a c #50526b",
"J c #51576c",
"r c #52546d",
"# c #565972",
"l c #574d5b",
"k c #57505a",
"x c #584c55",
"A c #5a444a",
"e c #5d5459",
"j c #635a60",
"y c #665566",
"f c #6b6166",
"B c #6f494d",
"d c #776a6b",
"G c #787d93",
"w c #7b6a70",
"H c #8091a5",
"n c #8a6552",
"i c #8d7051",
"h c #957350",
"z c #a2394b",
"C c #ae4a52",
"g c #ba8d5e",
"v c #d3a38d",
"q c #e19b9b",
"E c #f69784",
"s c #f6ae9f",
"D c #ffb893",
"t c #ffcbb0",
"................................................................",
"................................................................",
"................................................................",
"................................................................",
"................................................................",
"................................................................",
"................................................................",
"................................................................",
"................................................................",
"................................................................",
"................................................................",
"................................................................",
"................................................................",
"................................................................",
"................................................................",
"................................................................",
"................................................................",
"................................................................",
"................................................................",
"................................................................",
"................................................................",
"................................................................",
"................................................................",
"................................................................",
"................................................................",
"................................................................",
"................................................................",
"................................................................",
"................................................................",
"................................................................",
"................................................................",
"................................................................",
"................................................................",
"................................................................",
"................................................................",
"................................................................",
"................########aaaabbbbcccccccccccccccccccc............",
"................########aaaabbbbcccccccccccccccccccc............",
"................########aaaabbbbcccccccccccccccccccc............",
"................########aaaabbbbcccccccccccccccccccc............",
"............####dddd########cccccccccccccccccccceeeecccc........",
"............####dddd########cccccccccccccccccccceeeecccc........",
"............####dddd########cccccccccccccccccccceeeecccc........",
"............####dddd########cccccccccccccccccccceeeecccc........",
"........####ffff####gggggggggggggggggggghhhhiiiicccceeeecccc....",
"........####ffff####gggggggggggggggggggghhhhiiiicccceeeecccc....",
"........####ffff####gggggggggggggggggggghhhhiiiicccceeeecccc....",
"........####ffff####gggggggggggggggggggghhhhiiiicccceeeecccc....",
"....ccccjjjj####hhhhhhhhgggggggggggggggggggghhhhiiiicccccccc....",
"....ccccjjjj####hhhhhhhhgggggggggggggggggggghhhhiiiicccccccc....",
"....ccccjjjj####hhhhhhhhgggggggggggggggggggghhhhiiiicccccccc....",
"....ccccjjjj####hhhhhhhhgggggggggggggggggggghhhhiiiicccccccc....",
"....cccccccciiiihhhhhhhhhhhhhhhhgggggggggggghhhhiiiicccckkkkcccc",
"....cccccccciiiihhhhhhhhhhhhhhhhgggggggggggghhhhiiiicccckkkkcccc",
"....cccccccciiiihhhhhhhhhhhhhhhhgggggggggggghhhhiiiicccckkkkcccc",
"....cccccccciiiihhhhhhhhhhhhhhhhgggggggggggghhhhiiiicccckkkkcccc",
"ccccllllcccciiiihhhhhhhhhhhhhhhhhhhhgggggggghhhhiiiiiiiiccccmmmm",
"ccccllllcccciiiihhhhhhhhhhhhhhhhhhhhgggggggghhhhiiiiiiiiccccmmmm",
"ccccllllcccciiiihhhhhhhhhhhhhhhhhhhhgggggggghhhhiiiiiiiiccccmmmm",
"ccccllllcccciiiihhhhhhhhhhhhhhhhhhhhgggggggghhhhiiiiiiiiccccmmmm",
"ccccccccnnnniiiihhhhhhhhhhhhhhhhhhhhhhhhhhhhiiiiiiiinnnnoooopppp",
"ccccccccnnnniiiihhhhhhhhhhhhhhhhhhhhhhhhhhhhiiiiiiiinnnnoooopppp",
"ccccccccnnnniiiihhhhhhhhhhhhhhhhhhhhhhhhhhhhiiiiiiiinnnnoooopppp",
"ccccccccnnnniiiihhhhhhhhhhhhhhhhhhhhhhhhhhhhiiiiiiiinnnnoooopppp",
"ccccccccnnnniiiiiiiiiiiiiiiihhhhiiiiiiiiiiiinnnnnnnnnnnnoooooooo",
"ccccccccnnnniiiiiiiiiiiiiiiihhhhiiiiiiiiiiiinnnnnnnnnnnnoooooooo",
"ccccccccnnnniiiiiiiiiiiiiiiihhhhiiiiiiiiiiiinnnnnnnnnnnnoooooooo",
"ccccccccnnnniiiiiiiiiiiiiiiihhhhiiiiiiiiiiiinnnnnnnnnnnnoooooooo",
"cccccccc####qqqqiiiiiiiiiiiiiiiiiiiiiiiinnnnnnnnnnnnnnnnoooooooo",
"cccccccc####qqqqiiiiiiiiiiiiiiiiiiiiiiiinnnnnnnnnnnnnnnnoooooooo",
"cccccccc####qqqqiiiiiiiiiiiiiiiiiiiiiiiinnnnnnnnnnnnnnnnoooooooo",
"cccccccc####qqqqiiiiiiiiiiiiiiiiiiiiiiiinnnnnnnnnnnnnnnnoooooooo",
"ccccrrrr####ssssssssiiiinnnnhhhhiiiiiiiinnnnnnnnnnnnnnnnoooooooo",
"ccccrrrr####ssssssssiiiinnnnhhhhiiiiiiiinnnnnnnnnnnnnnnnoooooooo",
"ccccrrrr####ssssssssiiiinnnnhhhhiiiiiiiinnnnnnnnnnnnnnnnoooooooo",
"ccccrrrr####ssssssssiiiinnnnhhhhiiiiiiiinnnnnnnnnnnnnnnnoooooooo",
"....aaaa####ttttttttiiiitttthhhhiiiinnnnnnnnnnnnnnnnnnnnoooooooo",
"....aaaa####ttttttttiiiitttthhhhiiiinnnnnnnnnnnnnnnnnnnnoooooooo",
"....aaaa####ttttttttiiiitttthhhhiiiinnnnnnnnnnnnnnnnnnnnoooooooo",
"....aaaa####ttttttttiiiitttthhhhiiiinnnnnnnnnnnnnnnnnnnnoooooooo",
"....uuuuccccttttvvvvttttttttssssiiiittttttttssssnnnnnnnnoooooooo",
"....uuuuccccttttvvvvttttttttssssiiiittttttttssssnnnnnnnnoooooooo",
"....uuuuccccttttvvvvttttttttssssiiiittttttttssssnnnnnnnnoooooooo",
"....uuuuccccttttvvvvttttttttssssiiiittttttttssssnnnnnnnnoooooooo",
"....mmmmoooottttoooottttttttttttttttttttssssssssnnnnnnnnoooooooo",
"....mmmmoooottttoooottttttttttttttttttttssssssssnnnnnnnnoooooooo",
"....mmmmoooottttoooottttttttttttttttttttssssssssnnnnnnnnoooooooo",
"....mmmmoooottttoooottttttttttttttttttttssssssssnnnnnnnnoooooooo",
"....oooowwwwooooqqqqqqqqssssttttssssssssssssnnnnnnnnccccxxxxoooo",
"....oooowwwwooooqqqqqqqqssssttttssssssssssssnnnnnnnnccccxxxxoooo",
"....oooowwwwooooqqqqqqqqssssttttssssssssssssnnnnnnnnccccxxxxoooo",
"....oooowwwwooooqqqqqqqqssssttttssssssssssssnnnnnnnnccccxxxxoooo",
"........ooooyyyyccccccccccccooooooooooooooooooooooooxxxxcccc....",
"........ooooyyyyccccccccccccooooooooooooooooooooooooxxxxcccc....",
"........ooooyyyyccccccccccccooooooooooooooooooooooooxxxxcccc....",
"........ooooyyyyccccccccccccooooooooooooooooooooooooxxxxcccc....",
"............ppppoooozzzzcccczzzzAAAAooooAAAAoooooooooooo........",
"............ppppoooozzzzcccczzzzAAAAooooAAAAoooooooooooo........",
"............ppppoooozzzzcccczzzzAAAAooooAAAAoooooooooooo........",
"............ppppoooozzzzcccczzzzAAAAooooAAAAoooooooooooo........",
"............ooooooooBBBBccccBBBBCCCCoooozzzzoooooooo............",
"............ooooooooBBBBccccBBBBCCCCoooozzzzoooooooo............",
"............ooooooooBBBBccccBBBBCCCCoooozzzzoooooooo............",
"............ooooooooBBBBccccBBBBCCCCoooozzzzoooooooo............",
"............ooooooooCCCC####DDDDDDDDccccAAAAoooooooo............",
"............ooooooooCCCC####DDDDDDDDccccAAAAoooooooo............",
"............ooooooooCCCC####DDDDDDDDccccAAAAoooooooo............",
"............ooooooooCCCC####DDDDDDDDccccAAAAoooooooo............",
"............ooooooooBBBB####DDDDEEEEccccCCCCoooopppp............",
"............ooooooooBBBB####DDDDEEEEccccCCCCoooopppp............",
"............ooooooooBBBB####DDDDEEEEccccCCCCoooopppp............",
"............ooooooooBBBB####DDDDEEEEccccCCCCoooopppp............",
"............ooooFFFFooooGGGGccccccccooooooooccccmmmm............",
"............ooooFFFFooooGGGGccccccccooooooooccccmmmm............",
"............ooooFFFFooooGGGGccccccccooooooooccccmmmm............",
"............ooooFFFFooooGGGGccccccccooooooooccccmmmm............",
"................ooooooooHHHHHHHHHHHHGGGGooooIIIIcccc............",
"................ooooooooHHHHHHHHHHHHGGGGooooIIIIcccc............",
"................ooooooooHHHHHHHHHHHHGGGGooooIIIIcccc............",
"................ooooooooHHHHHHHHHHHHGGGGooooIIIIcccc............",
"................ooooJJJJooooAAAAAAAAAAAAoooooooo................",
"................ooooJJJJooooAAAAAAAAAAAAoooooooo................",
"................ooooJJJJooooAAAAAAAAAAAAoooooooo................",
"................ooooJJJJooooAAAAAAAAAAAAoooooooo................",
"....................ooooKKKKooooooooooooKKKKoooo................",
"....................ooooKKKKooooooooooooKKKKoooo................",
"....................ooooKKKKooooooooooooKKKKoooo................",
"....................ooooKKKKooooooooooooKKKKoooo................"};
