/* XPM */
static char *dummy[]={
"64 128 38 1",
". c None",
"o c #3a3a50",
"G c #3d3d53",
"n c #3e3e54",
"l c #404057",
"J c #443d4e",
"# c #46465e",
"F c #473d4f",
"u c #474860",
"a c #4b4c64",
"b c #50526b",
"I c #51576c",
"s c #52546d",
"c c #565972",
"m c #574d5b",
"k c #57505a",
"w c #584c55",
"v c #5a444a",
"d c #5d5459",
"j c #635a60",
"y c #665566",
"i c #6b6166",
"B c #6f494d",
"e c #776a6b",
"E c #787d93",
"x c #7b6a70",
"H c #8091a5",
"p c #8a6552",
"f c #8d7051",
"g c #957350",
"z c #a2394b",
"A c #ae4a52",
"h c #ba8d5e",
"q c #e19b9b",
"D c #f69784",
"r c #f6ae9f",
"C c #ffb893",
"t c #ffcbb0",
"................................................................",
"................................................................",
"................................................................",
"................................................................",
"................................................................",
"................................................................",
"................................................................",
"................................................................",
"................................................................",
"................................................................",
"................................................................",
"................................................................",
"................................................................",
"................................................................",
"................................................................",
"................................................................",
"................................................................",
"................................................................",
"................................................................",
"................................................................",
"................................................................",
"................................................................",
"................................................................",
"................................................................",
"................................................................",
"................................................................",
"................................................................",
"................................................................",
"................................................................",
"................................................................",
"................................................................",
"................................................................",
"................................................................",
"................................................................",
"................................................................",
"................................................................",
"............####################aaaabbbbcccccccc................",
"............####################aaaabbbbcccccccc................",
"............####################aaaabbbbcccccccc................",
"............####################aaaabbbbcccccccc................",
"........####dddd####################cccccccceeeecccc............",
"........####dddd####################cccccccceeeecccc............",
"........####dddd####################cccccccceeeecccc............",
"........####dddd####################cccccccceeeecccc............",
"....####dddd####ffffgggghhhhhhhhhhhhhhhhhhhhcccciiiicccc........",
"....####dddd####ffffgggghhhhhhhhhhhhhhhhhhhhcccciiiicccc........",
"....####dddd####ffffgggghhhhhhhhhhhhhhhhhhhhcccciiiicccc........",
"....####dddd####ffffgggghhhhhhhhhhhhhhhhhhhhcccciiiicccc........",
"....########ffffgggghhhhhhhhhhhhhhhhhhhhggggggggccccjjjj####....",
"....########ffffgggghhhhhhhhhhhhhhhhhhhhggggggggccccjjjj####....",
"....########ffffgggghhhhhhhhhhhhhhhhhhhhggggggggccccjjjj####....",
"....########ffffgggghhhhhhhhhhhhhhhhhhhhggggggggccccjjjj####....",
"####kkkk####ffffgggghhhhhhhhhhhhggggggggggggggggffff########....",
"####kkkk####ffffgggghhhhhhhhhhhhggggggggggggggggffff########....",
"####kkkk####ffffgggghhhhhhhhhhhhggggggggggggggggffff########....",
"####kkkk####ffffgggghhhhhhhhhhhhggggggggggggggggffff########....",
"llll####ffffffffgggghhhhhhhhggggggggggggggggggggffff####mmmm####",
"llll####ffffffffgggghhhhhhhhggggggggggggggggggggffff####mmmm####",
"llll####ffffffffgggghhhhhhhhggggggggggggggggggggffff####mmmm####",
"llll####ffffffffgggghhhhhhhhggggggggggggggggggggffff####mmmm####",
"nnnnooooppppffffffffggggggggggggggggggggggggggggffffpppp########",
"nnnnooooppppffffffffggggggggggggggggggggggggggggffffpppp########",
"nnnnooooppppffffffffggggggggggggggggggggggggggggffffpppp########",
"nnnnooooppppffffffffggggggggggggggggggggggggggggffffpppp########",
"ooooooooppppppppppppffffffffffffggggffffffffffffffffpppp########",
"ooooooooppppppppppppffffffffffffggggffffffffffffffffpppp########",
"ooooooooppppppppppppffffffffffffggggffffffffffffffffpppp########",
"ooooooooppppppppppppffffffffffffggggffffffffffffffffpppp########",
"ooooooooppppppppppppppppffffffffffffffffffffffffqqqqcccc########",
"ooooooooppppppppppppppppffffffffffffffffffffffffqqqqcccc########",
"ooooooooppppppppppppppppffffffffffffffffffffffffqqqqcccc########",
"ooooooooppppppppppppppppffffffffffffffffffffffffqqqqcccc########",
"ooooooooppppppppppppppppffffffffggggppppffffrrrrrrrrccccssss####",
"ooooooooppppppppppppppppffffffffggggppppffffrrrrrrrrccccssss####",
"ooooooooppppppppppppppppffffffffggggppppffffrrrrrrrrccccssss####",
"ooooooooppppppppppppppppffffffffggggppppffffrrrrrrrrccccssss####",
"ooooooooppppppppppppppppppppffffggggttttffffttttttttccccbbbb....",
"ooooooooppppppppppppppppppppffffggggttttffffttttttttccccbbbb....",
"ooooooooppppppppppppppppppppffffggggttttffffttttttttccccbbbb....",
"ooooooooppppppppppppppppppppffffggggttttffffttttttttccccbbbb....",
"oooooooopppppppprrrrttttttttffffrrrrttttttttooootttt####uuuu....",
"oooooooopppppppprrrrttttttttffffrrrrttttttttooootttt####uuuu....",
"oooooooopppppppprrrrttttttttffffrrrrttttttttooootttt####uuuu....",
"oooooooopppppppprrrrttttttttffffrrrrttttttttooootttt####uuuu....",
"oooooooopppppppprrrrrrrrttttttttttttttttttttvvvvttttoooollll....",
"oooooooopppppppprrrrrrrrttttttttttttttttttttvvvvttttoooollll....",
"oooooooopppppppprrrrrrrrttttttttttttttttttttvvvvttttoooollll....",
"oooooooopppppppprrrrrrrrttttttttttttttttttttvvvvttttoooollll....",
"oooowwww####pppppppprrrrrrrrrrrrttttrrrrqqqqqqqqooooxxxxoooo....",
"oooowwww####pppppppprrrrrrrrrrrrttttrrrrqqqqqqqqooooxxxxoooo....",
"oooowwww####pppppppprrrrrrrrrrrrttttrrrrqqqqqqqqooooxxxxoooo....",
"oooowwww####pppppppprrrrrrrrrrrrttttrrrrqqqqqqqqooooxxxxoooo....",
"....####wwwwoooooooooooooooooooooooo############yyyyoooo........",
"....####wwwwoooooooooooooooooooooooo############yyyyoooo........",
"....####wwwwoooooooooooooooooooooooo############yyyyoooo........",
"....####wwwwoooooooooooooooooooooooo############yyyyoooo........",
"........oooooooooooovvvvoooovvvvzzzz####zzzzoooonnnn............",
"........oooooooooooovvvvoooovvvvzzzz####zzzzoooonnnn............",
"........oooooooooooovvvvoooovvvvzzzz####zzzzoooonnnn............",
"........oooooooooooovvvvoooovvvvzzzz####zzzzoooonnnn............",
"............oooooooozzzzooooAAAABBBB####BBBBoooooooo............",
"............oooooooozzzzooooAAAABBBB####BBBBoooooooo............",
"............oooooooozzzzooooAAAABBBB####BBBBoooooooo............",
"............oooooooozzzzooooAAAABBBB####BBBBoooooooo............",
"............oooooooovvvv####CCCCCCCCccccAAAAoooooooo............",
"............oooooooovvvv####CCCCCCCCccccAAAAoooooooo............",
"............oooooooovvvv####CCCCCCCCccccAAAAoooooooo............",
"............oooooooovvvv####CCCCCCCCccccAAAAoooooooo............",
"............nnnnooooAAAA####DDDDCCCCccccBBBBoooooooo............",
"............nnnnooooAAAA####DDDDCCCCccccBBBBoooooooo............",
"............nnnnooooAAAA####DDDDCCCCccccBBBBoooooooo............",
"............nnnnooooAAAA####DDDDCCCCccccBBBBoooooooo............",
"............llll####oooooooo########EEEEooooFFFFoooo............",
"............llll####oooooooo########EEEEooooFFFFoooo............",
"............llll####oooooooo########EEEEooooFFFFoooo............",
"............llll####oooooooo########EEEEooooFFFFoooo............",
"............####GGGGooooEEEEHHHHHHHHHHHHoooooooo................",
"............####GGGGooooEEEEHHHHHHHHHHHHoooooooo................",
"............####GGGGooooEEEEHHHHHHHHHHHHoooooooo................",
"............####GGGGooooEEEEHHHHHHHHHHHHoooooooo................",
"................oooooooovvvvvvvvvvvvooooIIIIoooo................",
"................oooooooovvvvvvvvvvvvooooIIIIoooo................",
"................oooooooovvvvvvvvvvvvooooIIIIoooo................",
"................oooooooovvvvvvvvvvvvooooIIIIoooo................",
"................ooooJJJJooooooooooooJJJJoooo....................",
"................ooooJJJJooooooooooooJJJJoooo....................",
"................ooooJJJJooooooooooooJJJJoooo....................",
"................ooooJJJJooooooooooooJJJJoooo...................."};
