/* XPM */
static char *dummy[]={
"64 128 34 1",
". c None",
"n c #3a3a50",
"m c #3e3e54",
"k c #404057",
"F c #443d4e",
"c c #46465e",
"E c #47475f",
"b c #4b4c64",
"h c #4e4f68",
"a c #50526b",
"p c #54454f",
"# c #565972",
"j c #574d5b",
"v c #5a444a",
"i c #5b5260",
"r c #5e424f",
"e c #605559",
"w c #665863",
"u c #6e5c64",
"s c #6f494d",
"q c #6f5446",
"B c #715f67",
"d c #776a6b",
"C c #787d93",
"A c #7f686b",
"D c #8091a5",
"l c #8a6552",
"o c #8d7051",
"g c #957350",
"t c #a2394b",
"z c #ae4a52",
"f c #ba8d5e",
"y c #f69784",
"x c #ffb893",
"................................................................",
"................................................................",
"................................................................",
"................................................................",
"................................................................",
"................................................................",
"................................................................",
"................................................................",
"................................................................",
"................................................................",
"................................................................",
"................................................................",
"................................................................",
"................................................................",
"................................................................",
"................................................................",
"................................................................",
"................................................................",
"................................................................",
"................................................................",
"................................................................",
"................................................................",
"................................................................",
"................................................................",
"................................................................",
"................................................................",
"................................................................",
"................................................................",
"................................................................",
"................................................................",
"................................................................",
"................................................................",
"................................................................",
"................................................................",
"................................................................",
"................................................................",
"............########aaaabbbbcccccccccccccccccccccccc............",
"............########aaaabbbbcccccccccccccccccccccccc............",
"............########aaaabbbbcccccccccccccccccccccccc............",
"............########aaaabbbbcccccccccccccccccccccccc............",
"........####dddd########cccccccccccccccccccccccceeeecccc........",
"........####dddd########cccccccccccccccccccccccceeeecccc........",
"........####dddd########cccccccccccccccccccccccceeeecccc........",
"........####dddd########cccccccccccccccccccccccceeeecccc........",
"....####dddd####ffffffffffffffffffffffffggggggggcccceeeecccc....",
"....####dddd####ffffffffffffffffffffffffggggggggcccceeeecccc....",
"....####dddd####ffffffffffffffffffffffffggggggggcccceeeecccc....",
"....####dddd####ffffffffffffffffffffffffggggggggcccceeeecccc....",
"....hhhh####ffffffffffffffffffffffffffffffffggggggggcccccccc....",
"....hhhh####ffffffffffffffffffffffffffffffffggggggggcccccccc....",
"....hhhh####ffffffffffffffffffffffffffffffffggggggggcccccccc....",
"....hhhh####ffffffffffffffffffffffffffffffffggggggggcccccccc....",
"cccciiiiccccffffffffffffffffffffffffffffffffggggggggccccjjjjcccc",
"cccciiiiccccffffffffffffffffffffffffffffffffggggggggccccjjjjcccc",
"cccciiiiccccffffffffffffffffffffffffffffffffggggggggccccjjjjcccc",
"cccciiiiccccffffffffffffffffffffffffffffffffggggggggccccjjjjcccc",
"kkkkccccllllggggffffffffffffffffffffffffggggggggggggllllcccckkkk",
"kkkkccccllllggggffffffffffffffffffffffffggggggggggggllllcccckkkk",
"kkkkccccllllggggffffffffffffffffffffffffggggggggggggllllcccckkkk",
"kkkkccccllllggggffffffffffffffffffffffffggggggggggggllllcccckkkk",
"mmmmnnnnllllggggggggggggggggggggggggggggggggggggoooollllnnnnmmmm",
"mmmmnnnnllllggggggggggggggggggggggggggggggggggggoooollllnnnnmmmm",
"mmmmnnnnllllggggggggggggggggggggggggggggggggggggoooollllnnnnmmmm",
"mmmmnnnnllllggggggggggggggggggggggggggggggggggggoooollllnnnnmmmm",
"nnnnnnnnllllooooggggggggggggggggggggggggggggoooooooollllnnnnnnnn",
"nnnnnnnnllllooooggggggggggggggggggggggggggggoooooooollllnnnnnnnn",
"nnnnnnnnllllooooggggggggggggggggggggggggggggoooooooollllnnnnnnnn",
"nnnnnnnnllllooooggggggggggggggggggggggggggggoooooooollllnnnnnnnn",
"nnnnnnnnlllloooooooooooooooooooooooooooooooooooooooollllnnnnnnnn",
"nnnnnnnnlllloooooooooooooooooooooooooooooooooooooooollllnnnnnnnn",
"nnnnnnnnlllloooooooooooooooooooooooooooooooooooooooollllnnnnnnnn",
"nnnnnnnnlllloooooooooooooooooooooooooooooooooooooooollllnnnnnnnn",
"nnnnnnnnlllllllloooooooooooooooooooooooooooooooollllllllnnnnnnnn",
"nnnnnnnnlllllllloooooooooooooooooooooooooooooooollllllllnnnnnnnn",
"nnnnnnnnlllllllloooooooooooooooooooooooooooooooollllllllnnnnnnnn",
"nnnnnnnnlllllllloooooooooooooooooooooooooooooooollllllllnnnnnnnn",
"nnnnnnnnllllllllllllllllllllllllllllllllllllllllllllllllnnnnnnnn",
"nnnnnnnnllllllllllllllllllllllllllllllllllllllllllllllllnnnnnnnn",
"nnnnnnnnllllllllllllllllllllllllllllllllllllllllllllllllnnnnnnnn",
"nnnnnnnnllllllllllllllllllllllllllllllllllllllllllllllllnnnnnnnn",
"nnnnnnnnllllllllllllllllllllllllllllllllllllllllllllllllnnnnnnnn",
"nnnnnnnnllllllllllllllllllllllllllllllllllllllllllllllllnnnnnnnn",
"nnnnnnnnllllllllllllllllllllllllllllllllllllllllllllllllnnnnnnnn",
"nnnnnnnnllllllllllllllllllllllllllllllllllllllllllllllllnnnnnnnn",
"nnnnnnnnllllllllllllllllllllllllllllllllllllllllllllllllnnnnnnnn",
"nnnnnnnnllllllllllllllllllllllllllllllllllllllllllllllllnnnnnnnn",
"nnnnnnnnllllllllllllllllllllllllllllllllllllllllllllllllnnnnnnnn",
"nnnnnnnnllllllllllllllllllllllllllllllllllllllllllllllllnnnnnnnn",
"nnnnppppnnnnllllqqqqllllqqqqllllqqqqllllqqqqllllqqqqnnnnrrrrnnnn",
"nnnnppppnnnnllllqqqqllllqqqqllllqqqqllllqqqqllllqqqqnnnnrrrrnnnn",
"nnnnppppnnnnllllqqqqllllqqqqllllqqqqllllqqqqllllqqqqnnnnrrrrnnnn",
"nnnnppppnnnnllllqqqqllllqqqqllllqqqqllllqqqqllllqqqqnnnnrrrrnnnn",
"nnnnnnnnssssqqqqnnnnqqqqnnnnqqqqnnnnqqqqnnnnqqqqnnnnttttnnnnnnnn",
"nnnnnnnnssssqqqqnnnnqqqqnnnnqqqqnnnnqqqqnnnnqqqqnnnnttttnnnnnnnn",
"nnnnnnnnssssqqqqnnnnqqqqnnnnqqqqnnnnqqqqnnnnqqqqnnnnttttnnnnnnnn",
"nnnnnnnnssssqqqqnnnnqqqqnnnnqqqqnnnnqqqqnnnnqqqqnnnnttttnnnnnnnn",
"uuuunnnnssssssssttttvvvvttttvvvvttttvvvvttttvvvvttttssssnnnnwwww",
"uuuunnnnssssssssttttvvvvttttvvvvttttvvvvttttvvvvttttssssnnnnwwww",
"uuuunnnnssssssssttttvvvvttttvvvvttttvvvvttttvvvvttttssssnnnnwwww",
"uuuunnnnssssssssttttvvvvttttvvvvttttvvvvttttvvvvttttssssnnnnwwww",
"ccccxxxxnnnnccccssssttttvvvvttttvvvvttttvvvvttttccccnnnnxxxxcccc",
"ccccxxxxnnnnccccssssttttvvvvttttvvvvttttvvvvttttccccnnnnxxxxcccc",
"ccccxxxxnnnnccccssssttttvvvvttttvvvvttttvvvvttttccccnnnnxxxxcccc",
"ccccxxxxnnnnccccssssttttvvvvttttvvvvttttvvvvttttccccnnnnxxxxcccc",
"ccccxxxxyyyynnnnzzzzsssszzzzsssszzzzsssszzzzssssnnnnyyyyxxxxcccc",
"ccccxxxxyyyynnnnzzzzsssszzzzsssszzzzsssszzzzssssnnnnyyyyxxxxcccc",
"ccccxxxxyyyynnnnzzzzsssszzzzsssszzzzsssszzzzssssnnnnyyyyxxxxcccc",
"ccccxxxxyyyynnnnzzzzsssszzzzsssszzzzsssszzzzssssnnnnyyyyxxxxcccc",
"AAAAnnnnnnnnnnnncccczzzzsssszzzzsssszzzzssssccccnnnnnnnnnnnnBBBB",
"AAAAnnnnnnnnnnnncccczzzzsssszzzzsssszzzzssssccccnnnnnnnnnnnnBBBB",
"AAAAnnnnnnnnnnnncccczzzzsssszzzzsssszzzzssssccccnnnnnnnnnnnnBBBB",
"AAAAnnnnnnnnnnnncccczzzzsssszzzzsssszzzzssssccccnnnnnnnnnnnnBBBB",
"nnnnnnnnnnnnnnnnCCCCccccccccccccccccccccccccCCCCnnnnnnnnnnnnnnnn",
"nnnnnnnnnnnnnnnnCCCCccccccccccccccccccccccccCCCCnnnnnnnnnnnnnnnn",
"nnnnnnnnnnnnnnnnCCCCccccccccccccccccccccccccCCCCnnnnnnnnnnnnnnnn",
"nnnnnnnnnnnnnnnnCCCCccccccccccccccccccccccccCCCCnnnnnnnnnnnnnnnn",
"........nnnnnnnnDDDDDDDD####cccccccc####DDDDDDDDnnnnnnnn........",
"........nnnnnnnnDDDDDDDD####cccccccc####DDDDDDDDnnnnnnnn........",
"........nnnnnnnnDDDDDDDD####cccccccc####DDDDDDDDnnnnnnnn........",
"........nnnnnnnnDDDDDDDD####cccccccc####DDDDDDDDnnnnnnnn........",
"........nnnnnnnnvvvvvvvvnnnnEEEEEEEEnnnnvvvvvvvvnnnnnnnn........",
"........nnnnnnnnvvvvvvvvnnnnEEEEEEEEnnnnvvvvvvvvnnnnnnnn........",
"........nnnnnnnnvvvvvvvvnnnnEEEEEEEEnnnnvvvvvvvvnnnnnnnn........",
"........nnnnnnnnvvvvvvvvnnnnEEEEEEEEnnnnvvvvvvvvnnnnnnnn........",
"........nnnnFFFFnnnnnnnnFFFFnnnnnnnnFFFFnnnnnnnnFFFFnnnn........",
"........nnnnFFFFnnnnnnnnFFFFnnnnnnnnFFFFnnnnnnnnFFFFnnnn........",
"........nnnnFFFFnnnnnnnnFFFFnnnnnnnnFFFFnnnnnnnnFFFFnnnn........",
"........nnnnFFFFnnnnnnnnFFFFnnnnnnnnFFFFnnnnnnnnFFFFnnnn........"};
