/* XPM */
static char *dummy[]={
"64 128 38 1",
". c None",
"m c #3a3a50",
"G c #3d3d53",
"z c #3e3e54",
"u c #404057",
"J c #443d4e",
"# c #46465e",
"F c #473d4f",
"s c #474860",
"a c #4b4c64",
"b c #50526b",
"I c #51576c",
"q c #52546d",
"c c #565972",
"l c #574d5b",
"k c #57505a",
"v c #584c55",
"t c #5a444a",
"d c #5d5459",
"j c #635a60",
"x c #665566",
"i c #6b6166",
"B c #6f494d",
"e c #776a6b",
"E c #787d93",
"w c #7b6a70",
"H c #8091a5",
"n c #8a6552",
"f c #8d7051",
"g c #957350",
"y c #a2394b",
"A c #ae4a52",
"h c #ba8d5e",
"o c #e19b9b",
"D c #f69784",
"p c #f6ae9f",
"C c #ffb893",
"r c #ffcbb0",
"................................................................",
"................................................................",
"................................................................",
"................................................................",
"................................................................",
"................................................................",
"................................................................",
"................................................................",
"................................................................",
"................................................................",
"................................................................",
"................................................................",
"................................................................",
"................................................................",
"................................................................",
"................................................................",
"................................................................",
"................................................................",
"................................................................",
"................................................................",
"................................................................",
"................................................................",
"................................................................",
"................................................................",
"................................................................",
"................................................................",
"................................................................",
"................................................................",
"................................................................",
"................................................................",
"................................................................",
"................................................................",
"................................................................",
"................................................................",
"................................................................",
"................................................................",
"............####################aaaabbbbcccccccc................",
"............####################aaaabbbbcccccccc................",
"............####################aaaabbbbcccccccc................",
"............####################aaaabbbbcccccccc................",
"........####dddd####################cccccccceeeecccc............",
"........####dddd####################cccccccceeeecccc............",
"........####dddd####################cccccccceeeecccc............",
"........####dddd####################cccccccceeeecccc............",
"....####dddd####ffffgggghhhhhhhhhhhhhhhhhhhhcccciiiicccc........",
"....####dddd####ffffgggghhhhhhhhhhhhhhhhhhhhcccciiiicccc........",
"....####dddd####ffffgggghhhhhhhhhhhhhhhhhhhhcccciiiicccc........",
"....####dddd####ffffgggghhhhhhhhhhhhhhhhhhhhcccciiiicccc........",
"....########ffffgggghhhhhhhhhhhhhhhhhhhhggggggggccccjjjj####....",
"....########ffffgggghhhhhhhhhhhhhhhhhhhhggggggggccccjjjj####....",
"....########ffffgggghhhhhhhhhhhhhhhhhhhhggggggggccccjjjj####....",
"....########ffffgggghhhhhhhhhhhhhhhhhhhhggggggggccccjjjj####....",
"....kkkk####ffffgggghhhhhhhhhhhhggggggggggggggggffff########....",
"....kkkk####ffffgggghhhhhhhhhhhhggggggggggggggggffff########....",
"....kkkk####ffffgggghhhhhhhhhhhhggggggggggggggggffff########....",
"....kkkk####ffffgggghhhhhhhhhhhhggggggggggggggggffff########....",
"....####ffffffffgggghhhhhhhhggggggggggggggggggggffff####llll####",
"....####ffffffffgggghhhhhhhhggggggggggggggggggggffff####llll####",
"....####ffffffffgggghhhhhhhhggggggggggggggggggggffff####llll####",
"....####ffffffffgggghhhhhhhhggggggggggggggggggggffff####llll####",
"....mmmmnnnnffffffffggggggggggggggggggggggggggggffffnnnn########",
"....mmmmnnnnffffffffggggggggggggggggggggggggggggffffnnnn########",
"....mmmmnnnnffffffffggggggggggggggggggggggggggggffffnnnn########",
"....mmmmnnnnffffffffggggggggggggggggggggggggggggffffnnnn########",
"....mmmmnnnnnnnnnnnnffffffffffffggggffffffffffffffffnnnn########",
"....mmmmnnnnnnnnnnnnffffffffffffggggffffffffffffffffnnnn########",
"....mmmmnnnnnnnnnnnnffffffffffffggggffffffffffffffffnnnn########",
"....mmmmnnnnnnnnnnnnffffffffffffggggffffffffffffffffnnnn########",
"....mmmmnnnnnnnnnnnnnnnnffffffffffffffffffffffffoooocccc########",
"....mmmmnnnnnnnnnnnnnnnnffffffffffffffffffffffffoooocccc########",
"....mmmmnnnnnnnnnnnnnnnnffffffffffffffffffffffffoooocccc########",
"....mmmmnnnnnnnnnnnnnnnnffffffffffffffffffffffffoooocccc########",
"....mmmmnnnnnnnnnnnnnnnnffffffffggggnnnnffffppppppppccccqqqq####",
"....mmmmnnnnnnnnnnnnnnnnffffffffggggnnnnffffppppppppccccqqqq####",
"....mmmmnnnnnnnnnnnnnnnnffffffffggggnnnnffffppppppppccccqqqq####",
"....mmmmnnnnnnnnnnnnnnnnffffffffggggnnnnffffppppppppccccqqqq####",
"....mmmmnnnnnnnnnnnnnnnnnnnnffffggggrrrrffffrrrrrrrrccccbbbb....",
"....mmmmnnnnnnnnnnnnnnnnnnnnffffggggrrrrffffrrrrrrrrccccbbbb....",
"....mmmmnnnnnnnnnnnnnnnnnnnnffffggggrrrrffffrrrrrrrrccccbbbb....",
"....mmmmnnnnnnnnnnnnnnnnnnnnffffggggrrrrffffrrrrrrrrccccbbbb....",
"....mmmmnnnnnnnnpppprrrrrrrrffffpppprrrrrrrrmmmmrrrr####ssss....",
"....mmmmnnnnnnnnpppprrrrrrrrffffpppprrrrrrrrmmmmrrrr####ssss....",
"....mmmmnnnnnnnnpppprrrrrrrrffffpppprrrrrrrrmmmmrrrr####ssss....",
"....mmmmnnnnnnnnpppprrrrrrrrffffpppprrrrrrrrmmmmrrrr####ssss....",
"....mmmmnnnnnnnnpppppppprrrrrrrrrrrrrrrrrrrrttttrrrrmmmmuuuu....",
"....mmmmnnnnnnnnpppppppprrrrrrrrrrrrrrrrrrrrttttrrrrmmmmuuuu....",
"....mmmmnnnnnnnnpppppppprrrrrrrrrrrrrrrrrrrrttttrrrrmmmmuuuu....",
"....mmmmnnnnnnnnpppppppprrrrrrrrrrrrrrrrrrrrttttrrrrmmmmuuuu....",
"....vvvv####nnnnnnnnpppppppppppprrrrppppoooooooommmmwwwwmmmm....",
"....vvvv####nnnnnnnnpppppppppppprrrrppppoooooooommmmwwwwmmmm....",
"....vvvv####nnnnnnnnpppppppppppprrrrppppoooooooommmmwwwwmmmm....",
"....vvvv####nnnnnnnnpppppppppppprrrrppppoooooooommmmwwwwmmmm....",
"....####vvvvmmmmmmmmmmmmmmmmmmmmmmmm############xxxxmmmm........",
"....####vvvvmmmmmmmmmmmmmmmmmmmmmmmm############xxxxmmmm........",
"....####vvvvmmmmmmmmmmmmmmmmmmmmmmmm############xxxxmmmm........",
"....####vvvvmmmmmmmmmmmmmmmmmmmmmmmm############xxxxmmmm........",
"........mmmmmmmmmmmmttttmmmmttttyyyy####yyyymmmmzzzz............",
"........mmmmmmmmmmmmttttmmmmttttyyyy####yyyymmmmzzzz............",
"........mmmmmmmmmmmmttttmmmmttttyyyy####yyyymmmmzzzz............",
"........mmmmmmmmmmmmttttmmmmttttyyyy####yyyymmmmzzzz............",
"............mmmmmmmmyyyymmmmAAAABBBB####BBBBmmmmmmmm............",
"............mmmmmmmmyyyymmmmAAAABBBB####BBBBmmmmmmmm............",
"............mmmmmmmmyyyymmmmAAAABBBB####BBBBmmmmmmmm............",
"............mmmmmmmmyyyymmmmAAAABBBB####BBBBmmmmmmmm............",
"............mmmmmmmmtttt####CCCCCCCCccccAAAAmmmmmmmm............",
"............mmmmmmmmtttt####CCCCCCCCccccAAAAmmmmmmmm............",
"............mmmmmmmmtttt####CCCCCCCCccccAAAAmmmmmmmm............",
"............mmmmmmmmtttt####CCCCCCCCccccAAAAmmmmmmmm............",
"............zzzzmmmmAAAA####DDDDCCCCccccBBBBmmmmmmmm............",
"............zzzzmmmmAAAA####DDDDCCCCccccBBBBmmmmmmmm............",
"............zzzzmmmmAAAA####DDDDCCCCccccBBBBmmmmmmmm............",
"............zzzzmmmmAAAA####DDDDCCCCccccBBBBmmmmmmmm............",
"............uuuu####mmmmmmmm########EEEEmmmmFFFFmmmm............",
"............uuuu####mmmmmmmm########EEEEmmmmFFFFmmmm............",
"............uuuu####mmmmmmmm########EEEEmmmmFFFFmmmm............",
"............uuuu####mmmmmmmm########EEEEmmmmFFFFmmmm............",
"............####GGGGmmmmEEEEHHHHHHHHHHHHmmmmmmmm................",
"............####GGGGmmmmEEEEHHHHHHHHHHHHmmmmmmmm................",
"............####GGGGmmmmEEEEHHHHHHHHHHHHmmmmmmmm................",
"............####GGGGmmmmEEEEHHHHHHHHHHHHmmmmmmmm................",
"................mmmmmmmmttttttttttttmmmmIIIImmmm................",
"................mmmmmmmmttttttttttttmmmmIIIImmmm................",
"................mmmmmmmmttttttttttttmmmmIIIImmmm................",
"................mmmmmmmmttttttttttttmmmmIIIImmmm................",
"................mmmmJJJJmmmmmmmmmmmmJJJJmmmm....................",
"................mmmmJJJJmmmmmmmmmmmmJJJJmmmm....................",
"................mmmmJJJJmmmmmmmmmmmmJJJJmmmm....................",
"................mmmmJJJJmmmmmmmmmmmmJJJJmmmm...................."};
