/* XPM */
static char *dummy[]={
"64 128 37 1",
". c None",
"m c #3a3a50",
"G c #3d3d53",
"n c #3e3e54",
"k c #404057",
"I c #443d4e",
"b c #46465e",
"D c #473d4f",
"t c #474860",
"r c #50526b",
"H c #51576c",
"p c #52546d",
"# c #565972",
"j c #574d5b",
"i c #57505a",
"w c #584c55",
"u c #5a444a",
"c c #5d5459",
"h c #635a60",
"x c #665566",
"d c #6b6166",
"A c #6f494d",
"a c #776a6b",
"E c #787d93",
"v c #7b6a70",
"F c #8091a5",
"l c #8a6552",
"g c #8d7051",
"f c #957350",
"y c #a2394b",
"z c #ae4a52",
"e c #ba8d5e",
"o c #e19b9b",
"C c #f69784",
"q c #f6ae9f",
"B c #ffb893",
"s c #ffcbb0",
"................................................................",
"................................................................",
"................................................................",
"................................................................",
"................................................................",
"................................................................",
"................................................................",
"................................................................",
"................................................................",
"................................................................",
"................................................................",
"................................................................",
"................................................................",
"................................................................",
"................................................................",
"................................................................",
"................................................................",
"................................................................",
"................................................................",
"................................................................",
"................................................................",
"................................................................",
"................................................................",
"................................................................",
"................................................................",
"................................................................",
"................................................................",
"................................................................",
"................................................................",
"................................................................",
"................................................................",
"................................................................",
"................................................................",
"................................................................",
"................................................................",
"................................................................",
"............####aaaa########bbbbbbbbbbbbbbbbbbbbccccbbbb........",
"............####aaaa########bbbbbbbbbbbbbbbbbbbbccccbbbb........",
"............####aaaa########bbbbbbbbbbbbbbbbbbbbccccbbbb........",
"............####aaaa########bbbbbbbbbbbbbbbbbbbbccccbbbb........",
"........####dddd####eeeeeeeeeeeeeeeeeeeeffffggggbbbbccccbbbb....",
"........####dddd####eeeeeeeeeeeeeeeeeeeeffffggggbbbbccccbbbb....",
"........####dddd####eeeeeeeeeeeeeeeeeeeeffffggggbbbbccccbbbb....",
"........####dddd####eeeeeeeeeeeeeeeeeeeeffffggggbbbbccccbbbb....",
"....bbbbhhhh####ffffffffeeeeeeeeeeeeeeeeeeeeffffggggbbbbbbbb....",
"....bbbbhhhh####ffffffffeeeeeeeeeeeeeeeeeeeeffffggggbbbbbbbb....",
"....bbbbhhhh####ffffffffeeeeeeeeeeeeeeeeeeeeffffggggbbbbbbbb....",
"....bbbbhhhh####ffffffffeeeeeeeeeeeeeeeeeeeeffffggggbbbbbbbb....",
"....bbbbbbbbggggffffffffffffffffeeeeeeeeeeeeffffggggbbbbiiiibbbb",
"....bbbbbbbbggggffffffffffffffffeeeeeeeeeeeeffffggggbbbbiiiibbbb",
"....bbbbbbbbggggffffffffffffffffeeeeeeeeeeeeffffggggbbbbiiiibbbb",
"....bbbbbbbbggggffffffffffffffffeeeeeeeeeeeeffffggggbbbbiiiibbbb",
"bbbbjjjjbbbbggggffffffffffffffffffffeeeeeeeeffffggggggggbbbbkkkk",
"bbbbjjjjbbbbggggffffffffffffffffffffeeeeeeeeffffggggggggbbbbkkkk",
"bbbbjjjjbbbbggggffffffffffffffffffffeeeeeeeeffffggggggggbbbbkkkk",
"bbbbjjjjbbbbggggffffffffffffffffffffeeeeeeeeffffggggggggbbbbkkkk",
"bbbbbbbbllllggggffffffffffffffffffffffffffffggggggggllllmmmmnnnn",
"bbbbbbbbllllggggffffffffffffffffffffffffffffggggggggllllmmmmnnnn",
"bbbbbbbbllllggggffffffffffffffffffffffffffffggggggggllllmmmmnnnn",
"bbbbbbbbllllggggffffffffffffffffffffffffffffggggggggllllmmmmnnnn",
"bbbbbbbbllllggggggggggggggggffffggggggggggggllllllllllllmmmmmmmm",
"bbbbbbbbllllggggggggggggggggffffggggggggggggllllllllllllmmmmmmmm",
"bbbbbbbbllllggggggggggggggggffffggggggggggggllllllllllllmmmmmmmm",
"bbbbbbbbllllggggggggggggggggffffggggggggggggllllllllllllmmmmmmmm",
"bbbbbbbb####ooooggggggggggggggggggggggggllllllllllllllllmmmmmmmm",
"bbbbbbbb####ooooggggggggggggggggggggggggllllllllllllllllmmmmmmmm",
"bbbbbbbb####ooooggggggggggggggggggggggggllllllllllllllllmmmmmmmm",
"bbbbbbbb####ooooggggggggggggggggggggggggllllllllllllllllmmmmmmmm",
"bbbbpppp####qqqqqqqqggggllllffffggggggggllllllllllllllllmmmmmmmm",
"bbbbpppp####qqqqqqqqggggllllffffggggggggllllllllllllllllmmmmmmmm",
"bbbbpppp####qqqqqqqqggggllllffffggggggggllllllllllllllllmmmmmmmm",
"bbbbpppp####qqqqqqqqggggllllffffggggggggllllllllllllllllmmmmmmmm",
"....rrrr####ssssssssggggssssffffggggllllllllllllllllllllmmmmmmmm",
"....rrrr####ssssssssggggssssffffggggllllllllllllllllllllmmmmmmmm",
"....rrrr####ssssssssggggssssffffggggllllllllllllllllllllmmmmmmmm",
"....rrrr####ssssssssggggssssffffggggllllllllllllllllllllmmmmmmmm",
"....ttttbbbbssssmmmmssssssssqqqqggggssssssssqqqqllllllllmmmmmmmm",
"....ttttbbbbssssmmmmssssssssqqqqggggssssssssqqqqllllllllmmmmmmmm",
"....ttttbbbbssssmmmmssssssssqqqqggggssssssssqqqqllllllllmmmmmmmm",
"....ttttbbbbssssmmmmssssssssqqqqggggssssssssqqqqllllllllmmmmmmmm",
"....kkkkmmmmssssuuuussssssssssssssssssssqqqqqqqqllllllllmmmmmmmm",
"....kkkkmmmmssssuuuussssssssssssssssssssqqqqqqqqllllllllmmmmmmmm",
"....kkkkmmmmssssuuuussssssssssssssssssssqqqqqqqqllllllllmmmmmmmm",
"....kkkkmmmmssssuuuussssssssssssssssssssqqqqqqqqllllllllmmmmmmmm",
"....mmmmvvvvmmmmooooooooqqqqssssqqqqqqqqqqqqllllllllbbbbwwwwmmmm",
"....mmmmvvvvmmmmooooooooqqqqssssqqqqqqqqqqqqllllllllbbbbwwwwmmmm",
"....mmmmvvvvmmmmooooooooqqqqssssqqqqqqqqqqqqllllllllbbbbwwwwmmmm",
"....mmmmvvvvmmmmooooooooqqqqssssqqqqqqqqqqqqllllllllbbbbwwwwmmmm",
"........mmmmxxxxbbbbbbbbbbbbmmmmmmmmmmmmmmmmmmmmmmmmwwwwbbbb....",
"........mmmmxxxxbbbbbbbbbbbbmmmmmmmmmmmmmmmmmmmmmmmmwwwwbbbb....",
"........mmmmxxxxbbbbbbbbbbbbmmmmmmmmmmmmmmmmmmmmmmmmwwwwbbbb....",
"........mmmmxxxxbbbbbbbbbbbbmmmmmmmmmmmmmmmmmmmmmmmmwwwwbbbb....",
"............nnnnmmmmyyyybbbbyyyyuuuummmmuuuummmmmmmmmmmm........",
"............nnnnmmmmyyyybbbbyyyyuuuummmmuuuummmmmmmmmmmm........",
"............nnnnmmmmyyyybbbbyyyyuuuummmmuuuummmmmmmmmmmm........",
"............nnnnmmmmyyyybbbbyyyyuuuummmmuuuummmmmmmmmmmm........",
"............mmmmmmmmzzzzbbbbzzzzzzzzmmmmyyyymmmmmmmm............",
"............mmmmmmmmzzzzbbbbzzzzzzzzmmmmyyyymmmmmmmm............",
"............mmmmmmmmzzzzbbbbzzzzzzzzmmmmyyyymmmmmmmm............",
"............mmmmmmmmzzzzbbbbzzzzzzzzmmmmyyyymmmmmmmm............",
"............mmmmmmmmAAAAbbbbAAAAzzzzmmmmyyyymmmmmmmm............",
"............mmmmmmmmAAAAbbbbAAAAzzzzmmmmyyyymmmmmmmm............",
"............mmmmmmmmAAAAbbbbAAAAzzzzmmmmyyyymmmmmmmm............",
"............mmmmmmmmAAAAbbbbAAAAzzzzmmmmyyyymmmmmmmm............",
"............mmmmmmmmzzzz####BBBBBBBBbbbbuuuummmmmmmm............",
"............mmmmmmmmzzzz####BBBBBBBBbbbbuuuummmmmmmm............",
"............mmmmmmmmzzzz####BBBBBBBBbbbbuuuummmmmmmm............",
"............mmmmmmmmzzzz####BBBBBBBBbbbbuuuummmmmmmm............",
"............mmmmmmmmAAAA####BBBBCCCCbbbbzzzzmmmmnnnn............",
"............mmmmmmmmAAAA####BBBBCCCCbbbbzzzzmmmmnnnn............",
"............mmmmmmmmAAAA####BBBBCCCCbbbbzzzzmmmmnnnn............",
"............mmmmmmmmAAAA####BBBBCCCCbbbbzzzzmmmmnnnn............",
"............mmmmDDDDmmmmEEEEbbbbbbbbmmmmmmmmbbbbkkkk............",
"............mmmmDDDDmmmmEEEEbbbbbbbbmmmmmmmmbbbbkkkk............",
"............mmmmDDDDmmmmEEEEbbbbbbbbmmmmmmmmbbbbkkkk............",
"............mmmmDDDDmmmmEEEEbbbbbbbbmmmmmmmmbbbbkkkk............",
"................mmmmmmmmFFFFFFFFFFFFEEEEmmmmGGGGbbbb............",
"................mmmmmmmmFFFFFFFFFFFFEEEEmmmmGGGGbbbb............",
"................mmmmmmmmFFFFFFFFFFFFEEEEmmmmGGGGbbbb............",
"................mmmmmmmmFFFFFFFFFFFFEEEEmmmmGGGGbbbb............",
"................mmmmHHHHmmmmuuuuuuuuuuuummmmmmmm................",
"................mmmmHHHHmmmmuuuuuuuuuuuummmmmmmm................",
"................mmmmHHHHmmmmuuuuuuuuuuuummmmmmmm................",
"................mmmmHHHHmmmmuuuuuuuuuuuummmmmmmm................",
"....................mmmmIIIImmmmmmmmmmmmIIIImmmm................",
"....................mmmmIIIImmmmmmmmmmmmIIIImmmm................",
"....................mmmmIIIImmmmmmmmmmmmIIIImmmm................",
"....................mmmmIIIImmmmmmmmmmmmIIIImmmm................"};
