/* XPM */
static char *dummy[]={
"64 128 35 1",
". c None",
"n c #3a3a50",
"C c #3c3c52",
"m c #3e3e54",
"k c #404057",
"G c #443d4e",
"b c #46465e",
"F c #47475f",
"g c #4e4f68",
"r c #524752",
"# c #565972",
"j c #574d5b",
"q c #5a444a",
"f c #5d5459",
"i c #5d565f",
"c c #605559",
"B c #6b5c68",
"t c #6e5c64",
"y c #6f494d",
"a c #776a6b",
"D c #787d93",
"E c #8091a5",
"l c #8a6552",
"v c #8b8bab",
"h c #8d7051",
"e c #957350",
"z c #9da3b7",
"u c #a2394b",
"x c #ae4a52",
"d c #ba8d5e",
"s c #e19b9b",
"A c #f69784",
"o c #f6ae9f",
"w c #ffb893",
"p c #ffcbb0",
"................................................................",
"................................................................",
"................................................................",
"................................................................",
"................................................................",
"................................................................",
"................................................................",
"................................................................",
"................................................................",
"................................................................",
"................................................................",
"................................................................",
"................................................................",
"................................................................",
"................................................................",
"................................................................",
"................................................................",
"................................................................",
"................................................................",
"................................................................",
"................................................................",
"................................................................",
"................................................................",
"................................................................",
"................................................................",
"................................................................",
"................................................................",
"................................................................",
"................................................................",
"................................................................",
"................................................................",
"................................................................",
"................................................................",
"................................................................",
"................................................................",
"................................................................",
"........####aaaa########bbbbbbbbbbbbbbbbbbbbbbbbccccbbbb........",
"........####aaaa########bbbbbbbbbbbbbbbbbbbbbbbbccccbbbb........",
"........####aaaa########bbbbbbbbbbbbbbbbbbbbbbbbccccbbbb........",
"........####aaaa########bbbbbbbbbbbbbbbbbbbbbbbbccccbbbb........",
"....####aaaa####ddddddddddddddddddddddddeeeeeeeebbbbffffbbbb....",
"....####aaaa####ddddddddddddddddddddddddeeeeeeeebbbbffffbbbb....",
"....####aaaa####ddddddddddddddddddddddddeeeeeeeebbbbffffbbbb....",
"....####aaaa####ddddddddddddddddddddddddeeeeeeeebbbbffffbbbb....",
"....gggg####ddddddddddddddddddddddddddddddddeeeehhhhbbbbbbbb....",
"....gggg####ddddddddddddddddddddddddddddddddeeeehhhhbbbbbbbb....",
"....gggg####ddddddddddddddddddddddddddddddddeeeehhhhbbbbbbbb....",
"....gggg####ddddddddddddddddddddddddddddddddeeeehhhhbbbbbbbb....",
"bbbbiiiibbbbddddddddddddddddddddddddddddddddeeeehhhhbbbbjjjjbbbb",
"bbbbiiiibbbbddddddddddddddddddddddddddddddddeeeehhhhbbbbjjjjbbbb",
"bbbbiiiibbbbddddddddddddddddddddddddddddddddeeeehhhhbbbbjjjjbbbb",
"bbbbiiiibbbbddddddddddddddddddddddddddddddddeeeehhhhbbbbjjjjbbbb",
"kkkkbbbbeeeeeeeeddddddddddddddddddddddddeeeeeeeehhhhllllbbbbkkkk",
"kkkkbbbbeeeeeeeeddddddddddddddddddddddddeeeeeeeehhhhllllbbbbkkkk",
"kkkkbbbbeeeeeeeeddddddddddddddddddddddddeeeeeeeehhhhllllbbbbkkkk",
"kkkkbbbbeeeeeeeeddddddddddddddddddddddddeeeeeeeehhhhllllbbbbkkkk",
"mmmmnnnneeeeeeeeeeeeeeeeeeeeeeeeeeeeeeeeeeeehhhhhhhhhhhhnnnnmmmm",
"mmmmnnnneeeeeeeeeeeeeeeeeeeeeeeeeeeeeeeeeeeehhhhhhhhhhhhnnnnmmmm",
"mmmmnnnneeeeeeeeeeeeeeeeeeeeeeeeeeeeeeeeeeeehhhhhhhhhhhhnnnnmmmm",
"mmmmnnnneeeeeeeeeeeeeeeeeeeeeeeeeeeeeeeeeeeehhhhhhhhhhhhnnnnmmmm",
"nnnnnnnnhhhheeeeeeeeeeeehhhhhhhhhhhhhhhhhhhhhhhhhhhhhhhhnnnnnnnn",
"nnnnnnnnhhhheeeeeeeeeeeehhhhhhhhhhhhhhhhhhhhhhhhhhhhhhhhnnnnnnnn",
"nnnnnnnnhhhheeeeeeeeeeeehhhhhhhhhhhhhhhhhhhhhhhhhhhhhhhhnnnnnnnn",
"nnnnnnnnhhhheeeeeeeeeeeehhhhhhhhhhhhhhhhhhhhhhhhhhhhhhhhnnnnnnnn",
"nnnnnnnnllllhhhhhhhhhhhhhhhhoooopppphhhhhhhhhhhhhhhhhhhhnnnnnnnn",
"nnnnnnnnllllhhhhhhhhhhhhhhhhoooopppphhhhhhhhhhhhhhhhhhhhnnnnnnnn",
"nnnnnnnnllllhhhhhhhhhhhhhhhhoooopppphhhhhhhhhhhhhhhhhhhhnnnnnnnn",
"nnnnnnnnllllhhhhhhhhhhhhhhhhoooopppphhhhhhhhhhhhhhhhhhhhnnnnnnnn",
"nnnnnnnnllllhhhhhhhhoooooooopppppppphhhhllllhhhhhhhhllllnnnnnnnn",
"nnnnnnnnllllhhhhhhhhoooooooopppppppphhhhllllhhhhhhhhllllnnnnnnnn",
"nnnnnnnnllllhhhhhhhhoooooooopppppppphhhhllllhhhhhhhhllllnnnnnnnn",
"nnnnnnnnllllhhhhhhhhoooooooopppppppphhhhllllhhhhhhhhllllnnnnnnnn",
"nnnnnnnnllllhhhhoooooooopppppppppppphhhhoooohhhhhhhhllllnnnnnnnn",
"nnnnnnnnllllhhhhoooooooopppppppppppphhhhoooohhhhhhhhllllnnnnnnnn",
"nnnnnnnnllllhhhhoooooooopppppppppppphhhhoooohhhhhhhhllllnnnnnnnn",
"nnnnnnnnllllhhhhoooooooopppppppppppphhhhoooohhhhhhhhllllnnnnnnnn",
"nnnnnnnnllllhhhhppppnnnnppppppppppppppppnnnnhhhhhhhhllllnnnnnnnn",
"nnnnnnnnllllhhhhppppnnnnppppppppppppppppnnnnhhhhhhhhllllnnnnnnnn",
"nnnnnnnnllllhhhhppppnnnnppppppppppppppppnnnnhhhhhhhhllllnnnnnnnn",
"nnnnnnnnllllhhhhppppnnnnppppppppppppppppnnnnhhhhhhhhllllnnnnnnnn",
"nnnnnnnnllllooooppppqqqqppppppppppppppppqqqqhhhhoooollllnnnnnnnn",
"nnnnnnnnllllooooppppqqqqppppppppppppppppqqqqhhhhoooollllnnnnnnnn",
"nnnnnnnnllllooooppppqqqqppppppppppppppppqqqqhhhhoooollllnnnnnnnn",
"nnnnnnnnllllooooppppqqqqppppppppppppppppqqqqhhhhoooollllnnnnnnnn",
"nnnnrrrrbbbboooossssssssoooooooooooooooossssssssoooobbbbrrrrnnnn",
"nnnnrrrrbbbboooossssssssoooooooooooooooossssssssoooobbbbrrrrnnnn",
"nnnnrrrrbbbboooossssssssoooooooooooooooossssssssoooobbbbrrrrnnnn",
"nnnnrrrrbbbboooossssssssoooooooooooooooossssssssoooobbbbrrrrnnnn",
"nnnnnnnnqqqqbbbbbbbbbbbbbbbb########bbbbbbbbbbbbbbbbqqqqnnnnnnnn",
"nnnnnnnnqqqqbbbbbbbbbbbbbbbb########bbbbbbbbbbbbbbbbqqqqnnnnnnnn",
"nnnnnnnnqqqqbbbbbbbbbbbbbbbb########bbbbbbbbbbbbbbbbqqqqnnnnnnnn",
"nnnnnnnnqqqqbbbbbbbbbbbbbbbb########bbbbbbbbbbbbbbbbqqqqnnnnnnnn",
"ttttnnnnuuuuqqqquuuuqqqqnnnnvvvvvvvvnnnnuuuuqqqquuuuqqqqnnnntttt",
"ttttnnnnuuuuqqqquuuuqqqqnnnnvvvvvvvvnnnnuuuuqqqquuuuqqqqnnnntttt",
"ttttnnnnuuuuqqqquuuuqqqqnnnnvvvvvvvvnnnnuuuuqqqquuuuqqqqnnnntttt",
"ttttnnnnuuuuqqqquuuuqqqqnnnnvvvvvvvvnnnnuuuuqqqquuuuqqqqnnnntttt",
"bbbbwwwwnnnnxxxxyyyyxxxxnnnnzzzzzzzznnnnqqqqxxxxyyyynnnnwwwwbbbb",
"bbbbwwwwnnnnxxxxyyyyxxxxnnnnzzzzzzzznnnnqqqqxxxxyyyynnnnwwwwbbbb",
"bbbbwwwwnnnnxxxxyyyyxxxxnnnnzzzzzzzznnnnqqqqxxxxyyyynnnnwwwwbbbb",
"bbbbwwwwnnnnxxxxyyyyxxxxnnnnzzzzzzzznnnnqqqqxxxxyyyynnnnwwwwbbbb",
"bbbbwwwwAAAAyyyyxxxxyyyynnnnzzzzzzzznnnnxxxxyyyyxxxxAAAAwwwwbbbb",
"bbbbwwwwAAAAyyyyxxxxyyyynnnnzzzzzzzznnnnxxxxyyyyxxxxAAAAwwwwbbbb",
"bbbbwwwwAAAAyyyyxxxxyyyynnnnzzzzzzzznnnnxxxxyyyyxxxxAAAAwwwwbbbb",
"bbbbwwwwAAAAyyyyxxxxyyyynnnnzzzzzzzznnnnxxxxyyyyxxxxAAAAwwwwbbbb",
"BBBBbbbbnnnnnnnnyyyyxxxxnnnnzzzzzzzznnnnyyyyxxxxnnnnnnnnbbbbBBBB",
"BBBBbbbbnnnnnnnnyyyyxxxxnnnnzzzzzzzznnnnyyyyxxxxnnnnnnnnbbbbBBBB",
"BBBBbbbbnnnnnnnnyyyyxxxxnnnnzzzzzzzznnnnyyyyxxxxnnnnnnnnbbbbBBBB",
"BBBBbbbbnnnnnnnnyyyyxxxxnnnnzzzzzzzznnnnyyyyxxxxnnnnnnnnbbbbBBBB",
"bbbbkkkkCCCCnnnnbbbbbbbbnnnn########nnnnbbbbbbbbnnnnCCCCkkkkbbbb",
"bbbbkkkkCCCCnnnnbbbbbbbbnnnn########nnnnbbbbbbbbnnnnCCCCkkkkbbbb",
"bbbbkkkkCCCCnnnnbbbbbbbbnnnn########nnnnbbbbbbbbnnnnCCCCkkkkbbbb",
"bbbbkkkkCCCCnnnnbbbbbbbbnnnn########nnnnbbbbbbbbnnnnCCCCkkkkbbbb",
"........nnnnnnnnDDDDDDDDDDDDDDDDDDDDDDDDDDDDDDDDnnnnnnnn........",
"........nnnnnnnnDDDDDDDDDDDDDDDDDDDDDDDDDDDDDDDDnnnnnnnn........",
"........nnnnnnnnDDDDDDDDDDDDDDDDDDDDDDDDDDDDDDDDnnnnnnnn........",
"........nnnnnnnnDDDDDDDDDDDDDDDDDDDDDDDDDDDDDDDDnnnnnnnn........",
"........nnnnnnnnEEEEEEEE####bbbbbbbb####EEEEEEEEnnnnnnnn........",
"........nnnnnnnnEEEEEEEE####bbbbbbbb####EEEEEEEEnnnnnnnn........",
"........nnnnnnnnEEEEEEEE####bbbbbbbb####EEEEEEEEnnnnnnnn........",
"........nnnnnnnnEEEEEEEE####bbbbbbbb####EEEEEEEEnnnnnnnn........",
"........nnnnnnnnqqqqqqqqnnnnFFFFFFFFnnnnqqqqqqqqnnnnnnnn........",
"........nnnnnnnnqqqqqqqqnnnnFFFFFFFFnnnnqqqqqqqqnnnnnnnn........",
"........nnnnnnnnqqqqqqqqnnnnFFFFFFFFnnnnqqqqqqqqnnnnnnnn........",
"........nnnnnnnnqqqqqqqqnnnnFFFFFFFFnnnnqqqqqqqqnnnnnnnn........",
"........nnnnGGGGnnnnnnnnGGGGnnnnnnnnGGGGnnnnnnnnGGGGnnnn........",
"........nnnnGGGGnnnnnnnnGGGGnnnnnnnnGGGGnnnnnnnnGGGGnnnn........",
"........nnnnGGGGnnnnnnnnGGGGnnnnnnnnGGGGnnnnnnnnGGGGnnnn........",
"........nnnnGGGGnnnnnnnnGGGGnnnnnnnnGGGGnnnnnnnnGGGGnnnn........"};
