/* XPM */
static char *dummy[]={
"64 128 38 1",
". c None",
"o c #3a3a50",
"H c #3d3d53",
"p c #3e3e54",
"m c #404057",
"J c #443d4e",
"c c #46465e",
"E c #473d4f",
"u c #474860",
"b c #4b4c64",
"a c #50526b",
"I c #51576c",
"r c #52546d",
"# c #565972",
"l c #574d5b",
"k c #57505a",
"x c #584c55",
"v c #5a444a",
"e c #5d5459",
"j c #635a60",
"y c #665566",
"f c #6b6166",
"A c #6f494d",
"d c #776a6b",
"F c #787d93",
"w c #7b6a70",
"G c #8091a5",
"n c #8a6552",
"i c #8d7051",
"h c #957350",
"z c #a2394b",
"B c #ae4a52",
"g c #ba8d5e",
"q c #e19b9b",
"D c #f69784",
"s c #f6ae9f",
"C c #ffb893",
"t c #ffcbb0",
"................................................................",
"................................................................",
"................................................................",
"................................................................",
"................................................................",
"................................................................",
"................................................................",
"................................................................",
"................................................................",
"................................................................",
"................................................................",
"................................................................",
"................................................................",
"................................................................",
"................................................................",
"................................................................",
"................................................................",
"................................................................",
"................................................................",
"................................................................",
"................................................................",
"................................................................",
"................................................................",
"................................................................",
"................................................................",
"................................................................",
"................................................................",
"................................................................",
"................................................................",
"................................................................",
"................................................................",
"................................................................",
"................................................................",
"................................................................",
"................................................................",
"................................................................",
"................########aaaabbbbcccccccccccccccccccc............",
"................########aaaabbbbcccccccccccccccccccc............",
"................########aaaabbbbcccccccccccccccccccc............",
"................########aaaabbbbcccccccccccccccccccc............",
"............####dddd########cccccccccccccccccccceeeecccc........",
"............####dddd########cccccccccccccccccccceeeecccc........",
"............####dddd########cccccccccccccccccccceeeecccc........",
"............####dddd########cccccccccccccccccccceeeecccc........",
"........####ffff####gggggggggggggggggggghhhhiiiicccceeeecccc....",
"........####ffff####gggggggggggggggggggghhhhiiiicccceeeecccc....",
"........####ffff####gggggggggggggggggggghhhhiiiicccceeeecccc....",
"........####ffff####gggggggggggggggggggghhhhiiiicccceeeecccc....",
"....ccccjjjj####hhhhhhhhgggggggggggggggggggghhhhiiiicccccccc....",
"....ccccjjjj####hhhhhhhhgggggggggggggggggggghhhhiiiicccccccc....",
"....ccccjjjj####hhhhhhhhgggggggggggggggggggghhhhiiiicccccccc....",
"....ccccjjjj####hhhhhhhhgggggggggggggggggggghhhhiiiicccccccc....",
"....cccccccciiiihhhhhhhhhhhhhhhhgggggggggggghhhhiiiicccckkkkcccc",
"....cccccccciiiihhhhhhhhhhhhhhhhgggggggggggghhhhiiiicccckkkkcccc",
"....cccccccciiiihhhhhhhhhhhhhhhhgggggggggggghhhhiiiicccckkkkcccc",
"....cccccccciiiihhhhhhhhhhhhhhhhgggggggggggghhhhiiiicccckkkkcccc",
"ccccllllcccciiiihhhhhhhhhhhhhhhhhhhhgggggggghhhhiiiiiiiiccccmmmm",
"ccccllllcccciiiihhhhhhhhhhhhhhhhhhhhgggggggghhhhiiiiiiiiccccmmmm",
"ccccllllcccciiiihhhhhhhhhhhhhhhhhhhhgggggggghhhhiiiiiiiiccccmmmm",
"ccccllllcccciiiihhhhhhhhhhhhhhhhhhhhgggggggghhhhiiiiiiiiccccmmmm",
"ccccccccnnnniiiihhhhhhhhhhhhhhhhhhhhhhhhhhhhiiiiiiiinnnnoooopppp",
"ccccccccnnnniiiihhhhhhhhhhhhhhhhhhhhhhhhhhhhiiiiiiiinnnnoooopppp",
"ccccccccnnnniiiihhhhhhhhhhhhhhhhhhhhhhhhhhhhiiiiiiiinnnnoooopppp",
"ccccccccnnnniiiihhhhhhhhhhhhhhhhhhhhhhhhhhhhiiiiiiiinnnnoooopppp",
"ccccccccnnnniiiiiiiiiiiiiiiihhhhiiiiiiiiiiiinnnnnnnnnnnnoooooooo",
"ccccccccnnnniiiiiiiiiiiiiiiihhhhiiiiiiiiiiiinnnnnnnnnnnnoooooooo",
"ccccccccnnnniiiiiiiiiiiiiiiihhhhiiiiiiiiiiiinnnnnnnnnnnnoooooooo",
"ccccccccnnnniiiiiiiiiiiiiiiihhhhiiiiiiiiiiiinnnnnnnnnnnnoooooooo",
"cccccccc####qqqqiiiiiiiiiiiiiiiiiiiiiiiinnnnnnnnnnnnnnnnoooooooo",
"cccccccc####qqqqiiiiiiiiiiiiiiiiiiiiiiiinnnnnnnnnnnnnnnnoooooooo",
"cccccccc####qqqqiiiiiiiiiiiiiiiiiiiiiiiinnnnnnnnnnnnnnnnoooooooo",
"cccccccc####qqqqiiiiiiiiiiiiiiiiiiiiiiiinnnnnnnnnnnnnnnnoooooooo",
"ccccrrrr####ssssssssiiiinnnnhhhhiiiiiiiinnnnnnnnnnnnnnnnoooooooo",
"ccccrrrr####ssssssssiiiinnnnhhhhiiiiiiiinnnnnnnnnnnnnnnnoooooooo",
"ccccrrrr####ssssssssiiiinnnnhhhhiiiiiiiinnnnnnnnnnnnnnnnoooooooo",
"ccccrrrr####ssssssssiiiinnnnhhhhiiiiiiiinnnnnnnnnnnnnnnnoooooooo",
"....aaaa####ttttttttiiiitttthhhhiiiinnnnnnnnnnnnnnnnnnnnoooooooo",
"....aaaa####ttttttttiiiitttthhhhiiiinnnnnnnnnnnnnnnnnnnnoooooooo",
"....aaaa####ttttttttiiiitttthhhhiiiinnnnnnnnnnnnnnnnnnnnoooooooo",
"....aaaa####ttttttttiiiitttthhhhiiiinnnnnnnnnnnnnnnnnnnnoooooooo",
"....uuuuccccttttoooottttttttssssiiiittttttttssssnnnnnnnnoooooooo",
"....uuuuccccttttoooottttttttssssiiiittttttttssssnnnnnnnnoooooooo",
"....uuuuccccttttoooottttttttssssiiiittttttttssssnnnnnnnnoooooooo",
"....uuuuccccttttoooottttttttssssiiiittttttttssssnnnnnnnnoooooooo",
"....mmmmoooottttvvvvttttttttttttttttttttssssssssnnnnnnnnoooooooo",
"....mmmmoooottttvvvvttttttttttttttttttttssssssssnnnnnnnnoooooooo",
"....mmmmoooottttvvvvttttttttttttttttttttssssssssnnnnnnnnoooooooo",
"....mmmmoooottttvvvvttttttttttttttttttttssssssssnnnnnnnnoooooooo",
"....oooowwwwooooqqqqqqqqssssttttssssssssssssnnnnnnnnccccxxxxoooo",
"....oooowwwwooooqqqqqqqqssssttttssssssssssssnnnnnnnnccccxxxxoooo",
"....oooowwwwooooqqqqqqqqssssttttssssssssssssnnnnnnnnccccxxxxoooo",
"....oooowwwwooooqqqqqqqqssssttttssssssssssssnnnnnnnnccccxxxxoooo",
"........ooooyyyyccccccccccccooooooooooooooooooooooooxxxxcccc....",
"........ooooyyyyccccccccccccooooooooooooooooooooooooxxxxcccc....",
"........ooooyyyyccccccccccccooooooooooooooooooooooooxxxxcccc....",
"........ooooyyyyccccccccccccooooooooooooooooooooooooxxxxcccc....",
"cccc........ppppoooozzzzcccczzzzvvvvoooovvvvoooooooooooo........",
"cccc........ppppoooozzzzcccczzzzvvvvoooovvvvoooooooooooo........",
"cccc........ppppoooozzzzcccczzzzvvvvoooovvvvoooooooooooo........",
"cccc........ppppoooozzzzcccczzzzvvvvoooovvvvoooooooooooo........",
"cccc........ooooooooAAAAccccAAAABBBBoooozzzzoooooooo............",
"cccc........ooooooooAAAAccccAAAABBBBoooozzzzoooooooo............",
"cccc........ooooooooAAAAccccAAAABBBBoooozzzzoooooooo............",
"cccc........ooooooooAAAAccccAAAABBBBoooozzzzoooooooo............",
"cccc........ooooooooBBBB####CCCCCCCCccccvvvvoooooooo............",
"cccc........ooooooooBBBB####CCCCCCCCccccvvvvoooooooo............",
"cccc........ooooooooBBBB####CCCCCCCCccccvvvvoooooooo............",
"cccc........ooooooooBBBB####CCCCCCCCccccvvvvoooooooo............",
"cccc........ooooooooAAAA####CCCCDDDDccccBBBBoooopppp............",
"cccc........ooooooooAAAA####CCCCDDDDccccBBBBoooopppp............",
"cccc........ooooooooAAAA####CCCCDDDDccccBBBBoooopppp............",
"cccc........ooooooooAAAA####CCCCDDDDccccBBBBoooopppp............",
"............ooooEEEEooooFFFFccccccccooooooooccccmmmm............",
"............ooooEEEEooooFFFFccccccccooooooooccccmmmm............",
"............ooooEEEEooooFFFFccccccccooooooooccccmmmm............",
"............ooooEEEEooooFFFFccccccccooooooooccccmmmm............",
"................ooooooooGGGGGGGGGGGGFFFFooooHHHHcccc............",
"................ooooooooGGGGGGGGGGGGFFFFooooHHHHcccc............",
"................ooooooooGGGGGGGGGGGGFFFFooooHHHHcccc............",
"................ooooooooGGGGGGGGGGGGFFFFooooHHHHcccc............",
"................ooooIIIIoooovvvvvvvvvvvvoooooooo................",
"................ooooIIIIoooovvvvvvvvvvvvoooooooo................",
"................ooooIIIIoooovvvvvvvvvvvvoooooooo................",
"................ooooIIIIoooovvvvvvvvvvvvoooooooo................",
"....................ooooJJJJooooooooooooJJJJoooo................",
"....................ooooJJJJooooooooooooJJJJoooo................",
"....................ooooJJJJooooooooooooJJJJoooo................",
"....................ooooJJJJooooooooooooJJJJoooo................"};
