/* XPM */
static char *dummy[]={
"64 128 39 1",
". c None",
"o c #3a3a50",
"H c #3d3d53",
"n c #3e3e54",
"l c #404057",
"K c #443d4e",
"# c #46465e",
"G c #473d4f",
"v c #474860",
"a c #4b4c64",
"b c #50526b",
"J c #51576c",
"s c #52546d",
"c c #565972",
"m c #574d5b",
"k c #57505a",
"w c #584c55",
"z c #5a444a",
"d c #5d5459",
"j c #635a60",
"y c #665566",
"i c #6b6166",
"C c #6f494d",
"e c #776a6b",
"F c #787d93",
"x c #7b6a70",
"I c #8091a5",
"p c #8a6552",
"f c #8d7051",
"g c #957350",
"A c #a2394b",
"B c #ae4a52",
"h c #ba8d5e",
"u c #d3a38d",
"q c #e19b9b",
"E c #f69784",
"r c #f6ae9f",
"D c #ffb893",
"t c #ffcbb0",
"................................................................",
"................................................................",
"................................................................",
"................................................................",
"................................................................",
"................................................................",
"................................................................",
"................................................................",
"................................................................",
"................................................................",
"................................................................",
"................................................................",
"................................................................",
"................................................................",
"................................................................",
"................................................................",
"................................................................",
"................................................................",
"................................................................",
"................................................................",
"................................................................",
"................................................................",
"................................................................",
"................................................................",
"................................................................",
"................................................................",
"................................................................",
"................................................................",
"................................................................",
"................................................................",
"................................................................",
"................................................................",
"................................................................",
"................................................................",
"................................................................",
"................................................................",
"............####################aaaabbbbcccccccc................",
"............####################aaaabbbbcccccccc................",
"............####################aaaabbbbcccccccc................",
"............####################aaaabbbbcccccccc................",
"........####dddd####################cccccccceeeecccc............",
"........####dddd####################cccccccceeeecccc............",
"........####dddd####################cccccccceeeecccc............",
"........####dddd####################cccccccceeeecccc............",
"....####dddd####ffffgggghhhhhhhhhhhhhhhhhhhhcccciiiicccc........",
"....####dddd####ffffgggghhhhhhhhhhhhhhhhhhhhcccciiiicccc........",
"....####dddd####ffffgggghhhhhhhhhhhhhhhhhhhhcccciiiicccc........",
"....####dddd####ffffgggghhhhhhhhhhhhhhhhhhhhcccciiiicccc........",
"....########ffffgggghhhhhhhhhhhhhhhhhhhhggggggggccccjjjj####....",
"....########ffffgggghhhhhhhhhhhhhhhhhhhhggggggggccccjjjj####....",
"....########ffffgggghhhhhhhhhhhhhhhhhhhhggggggggccccjjjj####....",
"....########ffffgggghhhhhhhhhhhhhhhhhhhhggggggggccccjjjj####....",
"####kkkk####ffffgggghhhhhhhhhhhhggggggggggggggggffff########....",
"####kkkk####ffffgggghhhhhhhhhhhhggggggggggggggggffff########....",
"####kkkk####ffffgggghhhhhhhhhhhhggggggggggggggggffff########....",
"####kkkk####ffffgggghhhhhhhhhhhhggggggggggggggggffff########....",
"llll####ffffffffgggghhhhhhhhggggggggggggggggggggffff####mmmm####",
"llll####ffffffffgggghhhhhhhhggggggggggggggggggggffff####mmmm####",
"llll####ffffffffgggghhhhhhhhggggggggggggggggggggffff####mmmm####",
"llll####ffffffffgggghhhhhhhhggggggggggggggggggggffff####mmmm####",
"nnnnooooppppffffffffggggggggggggggggggggggggggggffffpppp########",
"nnnnooooppppffffffffggggggggggggggggggggggggggggffffpppp########",
"nnnnooooppppffffffffggggggggggggggggggggggggggggffffpppp########",
"nnnnooooppppffffffffggggggggggggggggggggggggggggffffpppp########",
"ooooooooppppppppppppffffffffffffggggffffffffffffffffpppp########",
"ooooooooppppppppppppffffffffffffggggffffffffffffffffpppp########",
"ooooooooppppppppppppffffffffffffggggffffffffffffffffpppp########",
"ooooooooppppppppppppffffffffffffggggffffffffffffffffpppp########",
"ooooooooppppppppppppppppffffffffffffffffffffffffqqqqcccc########",
"ooooooooppppppppppppppppffffffffffffffffffffffffqqqqcccc########",
"ooooooooppppppppppppppppffffffffffffffffffffffffqqqqcccc########",
"ooooooooppppppppppppppppffffffffffffffffffffffffqqqqcccc########",
"ooooooooppppppppppppppppffffffffggggppppffffrrrrrrrrccccssss####",
"ooooooooppppppppppppppppffffffffggggppppffffrrrrrrrrccccssss####",
"ooooooooppppppppppppppppffffffffggggppppffffrrrrrrrrccccssss####",
"ooooooooppppppppppppppppffffffffggggppppffffrrrrrrrrccccssss####",
"ooooooooppppppppppppppppppppffffggggttttffffttttttttccccbbbb....",
"ooooooooppppppppppppppppppppffffggggttttffffttttttttccccbbbb....",
"ooooooooppppppppppppppppppppffffggggttttffffttttttttccccbbbb....",
"ooooooooppppppppppppppppppppffffggggttttffffttttttttccccbbbb....",
"oooooooopppppppprrrrttttttttffffrrrrttttttttuuuutttt####vvvv....",
"oooooooopppppppprrrrttttttttffffrrrrttttttttuuuutttt####vvvv....",
"oooooooopppppppprrrrttttttttffffrrrrttttttttuuuutttt####vvvv....",
"oooooooopppppppprrrrttttttttffffrrrrttttttttuuuutttt####vvvv....",
"oooooooopppppppprrrrrrrrttttttttttttttttttttoooottttoooollll....",
"oooooooopppppppprrrrrrrrttttttttttttttttttttoooottttoooollll....",
"oooooooopppppppprrrrrrrrttttttttttttttttttttoooottttoooollll....",
"oooooooopppppppprrrrrrrrttttttttttttttttttttoooottttoooollll....",
"oooowwww####pppppppprrrrrrrrrrrrttttrrrrqqqqqqqqooooxxxxoooo....",
"oooowwww####pppppppprrrrrrrrrrrrttttrrrrqqqqqqqqooooxxxxoooo....",
"oooowwww####pppppppprrrrrrrrrrrrttttrrrrqqqqqqqqooooxxxxoooo....",
"oooowwww####pppppppprrrrrrrrrrrrttttrrrrqqqqqqqqooooxxxxoooo....",
"....####wwwwoooooooooooooooooooooooo############yyyyoooo........",
"....####wwwwoooooooooooooooooooooooo############yyyyoooo........",
"....####wwwwoooooooooooooooooooooooo############yyyyoooo........",
"....####wwwwoooooooooooooooooooooooo############yyyyoooo........",
"........oooooooooooozzzzoooozzzzAAAA####AAAAoooonnnn............",
"........oooooooooooozzzzoooozzzzAAAA####AAAAoooonnnn............",
"........oooooooooooozzzzoooozzzzAAAA####AAAAoooonnnn............",
"........oooooooooooozzzzoooozzzzAAAA####AAAAoooonnnn............",
"............ooooooooAAAAooooBBBBCCCC####CCCCoooooooo............",
"............ooooooooAAAAooooBBBBCCCC####CCCCoooooooo............",
"............ooooooooAAAAooooBBBBCCCC####CCCCoooooooo............",
"............ooooooooAAAAooooBBBBCCCC####CCCCoooooooo............",
"............oooooooozzzz####DDDDDDDDccccBBBBoooooooo............",
"............oooooooozzzz####DDDDDDDDccccBBBBoooooooo............",
"............oooooooozzzz####DDDDDDDDccccBBBBoooooooo............",
"............oooooooozzzz####DDDDDDDDccccBBBBoooooooo............",
"............nnnnooooBBBB####EEEEDDDDccccCCCCoooooooo............",
"............nnnnooooBBBB####EEEEDDDDccccCCCCoooooooo............",
"............nnnnooooBBBB####EEEEDDDDccccCCCCoooooooo............",
"............nnnnooooBBBB####EEEEDDDDccccCCCCoooooooo............",
"............llll####oooooooo########FFFFooooGGGGoooo............",
"............llll####oooooooo########FFFFooooGGGGoooo............",
"............llll####oooooooo########FFFFooooGGGGoooo............",
"............llll####oooooooo########FFFFooooGGGGoooo............",
"............####HHHHooooFFFFIIIIIIIIIIIIoooooooo................",
"............####HHHHooooFFFFIIIIIIIIIIIIoooooooo................",
"............####HHHHooooFFFFIIIIIIIIIIIIoooooooo................",
"............####HHHHooooFFFFIIIIIIIIIIIIoooooooo................",
"................oooooooozzzzzzzzzzzzooooJJJJoooo................",
"................oooooooozzzzzzzzzzzzooooJJJJoooo................",
"................oooooooozzzzzzzzzzzzooooJJJJoooo................",
"................oooooooozzzzzzzzzzzzooooJJJJoooo................",
"................ooooKKKKooooooooooooKKKKoooo....................",
"................ooooKKKKooooooooooooKKKKoooo....................",
"................ooooKKKKooooooooooooKKKKoooo....................",
"................ooooKKKKooooooooooooKKKKoooo...................."};
