/* XPM */
static char *dummy[]={
"64 128 39 1",
". c None",
"p c #3a3a50",
"G c #3c3c52",
"o c #3e3e54",
"m c #404057",
"K c #443d4e",
"c c #46465e",
"J c #47475f",
"b c #4b4c64",
"i c #4e4f68",
"a c #50526b",
"t c #524752",
"# c #565972",
"l c #574d5b",
"s c #5a444a",
"h c #5d5459",
"k c #5d565f",
"e c #605559",
"z c #665863",
"v c #6e5c64",
"x c #6f494d",
"F c #74626b",
"d c #776a6b",
"H c #787d93",
"I c #8091a5",
"E c #836c6f",
"n c #8a6552",
"y c #8b8bab",
"j c #8d7051",
"g c #957350",
"C c #9da3b7",
"w c #a2394b",
"B c #ae4a52",
"f c #ba8d5e",
"u c #e19b9b",
"D c #f69784",
"q c #f6ae9f",
"A c #ffb893",
"r c #ffcbb0",
"................................................................",
"................................................................",
"................................................................",
"................................................................",
"................................................................",
"................................................................",
"................................................................",
"................................................................",
"................................................................",
"................................................................",
"................................................................",
"................................................................",
"................................................................",
"................................................................",
"................................................................",
"................................................................",
"................................................................",
"................................................................",
"................................................................",
"................................................................",
"................................................................",
"................................................................",
"................................................................",
"................................................................",
"................................................................",
"................................................................",
"................................................................",
"................................................................",
"................................................................",
"................................................................",
"................................................................",
"................................................................",
"................................................................",
"................................................................",
"................................................................",
"................................................................",
"............########aaaabbbbcccccccccccccccccccccccc............",
"............########aaaabbbbcccccccccccccccccccccccc............",
"............########aaaabbbbcccccccccccccccccccccccc............",
"............########aaaabbbbcccccccccccccccccccccccc............",
"........####dddd########cccccccccccccccccccccccceeeecccc........",
"........####dddd########cccccccccccccccccccccccceeeecccc........",
"........####dddd########cccccccccccccccccccccccceeeecccc........",
"........####dddd########cccccccccccccccccccccccceeeecccc........",
"....####dddd####ffffffffffffffffffffffffggggggggcccchhhhcccc....",
"....####dddd####ffffffffffffffffffffffffggggggggcccchhhhcccc....",
"....####dddd####ffffffffffffffffffffffffggggggggcccchhhhcccc....",
"....####dddd####ffffffffffffffffffffffffggggggggcccchhhhcccc....",
"....iiii####ffffffffffffffffffffffffffffffffggggjjjjcccccccc....",
"....iiii####ffffffffffffffffffffffffffffffffggggjjjjcccccccc....",
"....iiii####ffffffffffffffffffffffffffffffffggggjjjjcccccccc....",
"....iiii####ffffffffffffffffffffffffffffffffggggjjjjcccccccc....",
"cccckkkkccccffffffffffffffffffffffffffffffffggggjjjjccccllllcccc",
"cccckkkkccccffffffffffffffffffffffffffffffffggggjjjjccccllllcccc",
"cccckkkkccccffffffffffffffffffffffffffffffffggggjjjjccccllllcccc",
"cccckkkkccccffffffffffffffffffffffffffffffffggggjjjjccccllllcccc",
"mmmmccccggggggggffffffffffffffffffffffffggggggggjjjjnnnnccccmmmm",
"mmmmccccggggggggffffffffffffffffffffffffggggggggjjjjnnnnccccmmmm",
"mmmmccccggggggggffffffffffffffffffffffffggggggggjjjjnnnnccccmmmm",
"mmmmccccggggggggffffffffffffffffffffffffggggggggjjjjnnnnccccmmmm",
"ooooppppggggggggggggggggggggggggggggggggggggjjjjjjjjjjjjppppoooo",
"ooooppppggggggggggggggggggggggggggggggggggggjjjjjjjjjjjjppppoooo",
"ooooppppggggggggggggggggggggggggggggggggggggjjjjjjjjjjjjppppoooo",
"ooooppppggggggggggggggggggggggggggggggggggggjjjjjjjjjjjjppppoooo",
"ppppppppjjjjggggggggggggjjjjjjjjjjjjjjjjjjjjjjjjjjjjjjjjpppppppp",
"ppppppppjjjjggggggggggggjjjjjjjjjjjjjjjjjjjjjjjjjjjjjjjjpppppppp",
"ppppppppjjjjggggggggggggjjjjjjjjjjjjjjjjjjjjjjjjjjjjjjjjpppppppp",
"ppppppppjjjjggggggggggggjjjjjjjjjjjjjjjjjjjjjjjjjjjjjjjjpppppppp",
"ppppppppnnnnjjjjjjjjjjjjjjjjqqqqrrrrjjjjjjjjjjjjjjjjjjjjpppppppp",
"ppppppppnnnnjjjjjjjjjjjjjjjjqqqqrrrrjjjjjjjjjjjjjjjjjjjjpppppppp",
"ppppppppnnnnjjjjjjjjjjjjjjjjqqqqrrrrjjjjjjjjjjjjjjjjjjjjpppppppp",
"ppppppppnnnnjjjjjjjjjjjjjjjjqqqqrrrrjjjjjjjjjjjjjjjjjjjjpppppppp",
"ppppppppnnnnjjjjjjjjqqqqqqqqrrrrrrrrjjjjnnnnjjjjjjjjnnnnpppppppp",
"ppppppppnnnnjjjjjjjjqqqqqqqqrrrrrrrrjjjjnnnnjjjjjjjjnnnnpppppppp",
"ppppppppnnnnjjjjjjjjqqqqqqqqrrrrrrrrjjjjnnnnjjjjjjjjnnnnpppppppp",
"ppppppppnnnnjjjjjjjjqqqqqqqqrrrrrrrrjjjjnnnnjjjjjjjjnnnnpppppppp",
"ppppppppnnnnjjjjqqqqqqqqrrrrrrrrrrrrjjjjqqqqjjjjjjjjnnnnpppppppp",
"ppppppppnnnnjjjjqqqqqqqqrrrrrrrrrrrrjjjjqqqqjjjjjjjjnnnnpppppppp",
"ppppppppnnnnjjjjqqqqqqqqrrrrrrrrrrrrjjjjqqqqjjjjjjjjnnnnpppppppp",
"ppppppppnnnnjjjjqqqqqqqqrrrrrrrrrrrrjjjjqqqqjjjjjjjjnnnnpppppppp",
"ppppppppnnnnjjjjrrrrpppprrrrrrrrrrrrrrrrppppjjjjjjjjnnnnpppppppp",
"ppppppppnnnnjjjjrrrrpppprrrrrrrrrrrrrrrrppppjjjjjjjjnnnnpppppppp",
"ppppppppnnnnjjjjrrrrpppprrrrrrrrrrrrrrrrppppjjjjjjjjnnnnpppppppp",
"ppppppppnnnnjjjjrrrrpppprrrrrrrrrrrrrrrrppppjjjjjjjjnnnnpppppppp",
"ppppppppnnnnqqqqrrrrssssrrrrrrrrrrrrrrrrssssjjjjqqqqnnnnpppppppp",
"ppppppppnnnnqqqqrrrrssssrrrrrrrrrrrrrrrrssssjjjjqqqqnnnnpppppppp",
"ppppppppnnnnqqqqrrrrssssrrrrrrrrrrrrrrrrssssjjjjqqqqnnnnpppppppp",
"ppppppppnnnnqqqqrrrrssssrrrrrrrrrrrrrrrrssssjjjjqqqqnnnnpppppppp",
"ppppttttccccqqqquuuuuuuuqqqqqqqqqqqqqqqquuuuuuuuqqqqccccttttpppp",
"ppppttttccccqqqquuuuuuuuqqqqqqqqqqqqqqqquuuuuuuuqqqqccccttttpppp",
"ppppttttccccqqqquuuuuuuuqqqqqqqqqqqqqqqquuuuuuuuqqqqccccttttpppp",
"ppppttttccccqqqquuuuuuuuqqqqqqqqqqqqqqqquuuuuuuuqqqqccccttttpppp",
"ppppppppsssscccccccccccccccc########ccccccccccccccccsssspppppppp",
"ppppppppsssscccccccccccccccc########ccccccccccccccccsssspppppppp",
"ppppppppsssscccccccccccccccc########ccccccccccccccccsssspppppppp",
"ppppppppsssscccccccccccccccc########ccccccccccccccccsssspppppppp",
"vvvvppppsssswwwwxxxxwwwwppppyyyyyyyyppppsssswwwwssssssssppppzzzz",
"vvvvppppsssswwwwxxxxwwwwppppyyyyyyyyppppsssswwwwssssssssppppzzzz",
"vvvvppppsssswwwwxxxxwwwwppppyyyyyyyyppppsssswwwwssssssssppppzzzz",
"vvvvppppsssswwwwxxxxwwwwppppyyyyyyyyppppsssswwwwssssssssppppzzzz",
"ccccAAAAppppxxxxBBBBxxxxppppCCCCCCCCppppBBBBxxxxBBBBppppAAAAcccc",
"ccccAAAAppppxxxxBBBBxxxxppppCCCCCCCCppppBBBBxxxxBBBBppppAAAAcccc",
"ccccAAAAppppxxxxBBBBxxxxppppCCCCCCCCppppBBBBxxxxBBBBppppAAAAcccc",
"ccccAAAAppppxxxxBBBBxxxxppppCCCCCCCCppppBBBBxxxxBBBBppppAAAAcccc",
"ccccAAAADDDDppppxxxxBBBBppppCCCCCCCCppppxxxxBBBBppppDDDDAAAAcccc",
"ccccAAAADDDDppppxxxxBBBBppppCCCCCCCCppppxxxxBBBBppppDDDDAAAAcccc",
"ccccAAAADDDDppppxxxxBBBBppppCCCCCCCCppppxxxxBBBBppppDDDDAAAAcccc",
"ccccAAAADDDDppppxxxxBBBBppppCCCCCCCCppppxxxxBBBBppppDDDDAAAAcccc",
"EEEEccccppppppppccccccccpppp########ppppccccccccppppppppccccFFFF",
"EEEEccccppppppppccccccccpppp########ppppccccccccppppppppccccFFFF",
"EEEEccccppppppppccccccccpppp########ppppccccccccppppppppccccFFFF",
"EEEEccccppppppppccccccccpppp########ppppccccccccppppppppccccFFFF",
"ccccmmmmGGGGppppHHHHHHHHHHHHHHHHHHHHHHHHHHHHHHHHppppGGGGmmmmcccc",
"ccccmmmmGGGGppppHHHHHHHHHHHHHHHHHHHHHHHHHHHHHHHHppppGGGGmmmmcccc",
"ccccmmmmGGGGppppHHHHHHHHHHHHHHHHHHHHHHHHHHHHHHHHppppGGGGmmmmcccc",
"ccccmmmmGGGGppppHHHHHHHHHHHHHHHHHHHHHHHHHHHHHHHHppppGGGGmmmmcccc",
"........ppppppppIIIIIIII####cccccccc####IIIIIIIIpppppppp........",
"........ppppppppIIIIIIII####cccccccc####IIIIIIIIpppppppp........",
"........ppppppppIIIIIIII####cccccccc####IIIIIIIIpppppppp........",
"........ppppppppIIIIIIII####cccccccc####IIIIIIIIpppppppp........",
"........ppppppppssssssssppppJJJJJJJJppppsssssssspppppppp........",
"........ppppppppssssssssppppJJJJJJJJppppsssssssspppppppp........",
"........ppppppppssssssssppppJJJJJJJJppppsssssssspppppppp........",
"........ppppppppssssssssppppJJJJJJJJppppsssssssspppppppp........",
"........ppppKKKKppppppppKKKKppppppppKKKKppppppppKKKKpppp........",
"........ppppKKKKppppppppKKKKppppppppKKKKppppppppKKKKpppp........",
"........ppppKKKKppppppppKKKKppppppppKKKKppppppppKKKKpppp........",
"........ppppKKKKppppppppKKKKppppppppKKKKppppppppKKKKpppp........"};
