/* XPM */
static char *dummy[]={
"64 128 29 1",
". c None",
"l c #3a3a50",
"k c #3e3e54",
"i c #404057",
"A c #443d4e",
"b c #46465e",
"z c #47475f",
"f c #4e4f68",
"# c #565972",
"h c #574d5b",
"s c #5a444a",
"g c #5b5260",
"n c #5e424f",
"c c #605559",
"v c #685a65",
"q c #6e5c64",
"r c #6f494d",
"o c #6f5446",
"a c #776a6b",
"x c #787d93",
"y c #8091a5",
"j c #8a6552",
"m c #8d7051",
"e c #957350",
"p c #a2394b",
"w c #ae4a52",
"d c #ba8d5e",
"u c #f69784",
"t c #ffb893",
"................................................................",
"................................................................",
"................................................................",
"................................................................",
"................................................................",
"................................................................",
"................................................................",
"................................................................",
"................................................................",
"................................................................",
"................................................................",
"................................................................",
"................................................................",
"................................................................",
"................................................................",
"................................................................",
"................................................................",
"................................................................",
"................................................................",
"................................................................",
"................................................................",
"................................................................",
"................................................................",
"................................................................",
"................................................................",
"................................................................",
"................................................................",
"................................................................",
"................................................................",
"................................................................",
"................................................................",
"................................................................",
"................................................................",
"................................................................",
"................................................................",
"................................................................",
"........####aaaa########bbbbbbbbbbbbbbbbbbbbbbbbccccbbbb........",
"........####aaaa########bbbbbbbbbbbbbbbbbbbbbbbbccccbbbb........",
"........####aaaa########bbbbbbbbbbbbbbbbbbbbbbbbccccbbbb........",
"........####aaaa########bbbbbbbbbbbbbbbbbbbbbbbbccccbbbb........",
"....####aaaa####ddddddddddddddddddddddddeeeeeeeebbbbccccbbbb....",
"....####aaaa####ddddddddddddddddddddddddeeeeeeeebbbbccccbbbb....",
"....####aaaa####ddddddddddddddddddddddddeeeeeeeebbbbccccbbbb....",
"....####aaaa####ddddddddddddddddddddddddeeeeeeeebbbbccccbbbb....",
"....ffff####ddddddddddddddddddddddddddddddddeeeeeeeebbbbbbbb....",
"....ffff####ddddddddddddddddddddddddddddddddeeeeeeeebbbbbbbb....",
"....ffff####ddddddddddddddddddddddddddddddddeeeeeeeebbbbbbbb....",
"....ffff####ddddddddddddddddddddddddddddddddeeeeeeeebbbbbbbb....",
"bbbbggggbbbbddddddddddddddddddddddddddddddddeeeeeeeebbbbhhhhbbbb",
"bbbbggggbbbbddddddddddddddddddddddddddddddddeeeeeeeebbbbhhhhbbbb",
"bbbbggggbbbbddddddddddddddddddddddddddddddddeeeeeeeebbbbhhhhbbbb",
"bbbbggggbbbbddddddddddddddddddddddddddddddddeeeeeeeebbbbhhhhbbbb",
"iiiibbbbjjjjeeeeddddddddddddddddddddddddeeeeeeeeeeeejjjjbbbbiiii",
"iiiibbbbjjjjeeeeddddddddddddddddddddddddeeeeeeeeeeeejjjjbbbbiiii",
"iiiibbbbjjjjeeeeddddddddddddddddddddddddeeeeeeeeeeeejjjjbbbbiiii",
"iiiibbbbjjjjeeeeddddddddddddddddddddddddeeeeeeeeeeeejjjjbbbbiiii",
"kkkklllljjjjeeeeeeeeeeeeeeeeeeeeeeeeeeeeeeeeeeeemmmmjjjjllllkkkk",
"kkkklllljjjjeeeeeeeeeeeeeeeeeeeeeeeeeeeeeeeeeeeemmmmjjjjllllkkkk",
"kkkklllljjjjeeeeeeeeeeeeeeeeeeeeeeeeeeeeeeeeeeeemmmmjjjjllllkkkk",
"kkkklllljjjjeeeeeeeeeeeeeeeeeeeeeeeeeeeeeeeeeeeemmmmjjjjllllkkkk",
"lllllllljjjjmmmmeeeeeeeeeeeeeeeeeeeeeeeeeeeemmmmmmmmjjjjllllllll",
"lllllllljjjjmmmmeeeeeeeeeeeeeeeeeeeeeeeeeeeemmmmmmmmjjjjllllllll",
"lllllllljjjjmmmmeeeeeeeeeeeeeeeeeeeeeeeeeeeemmmmmmmmjjjjllllllll",
"lllllllljjjjmmmmeeeeeeeeeeeeeeeeeeeeeeeeeeeemmmmmmmmjjjjllllllll",
"lllllllljjjjmmmmmmmmmmmmmmmmmmmmmmmmmmmmmmmmmmmmmmmmjjjjllllllll",
"lllllllljjjjmmmmmmmmmmmmmmmmmmmmmmmmmmmmmmmmmmmmmmmmjjjjllllllll",
"lllllllljjjjmmmmmmmmmmmmmmmmmmmmmmmmmmmmmmmmmmmmmmmmjjjjllllllll",
"lllllllljjjjmmmmmmmmmmmmmmmmmmmmmmmmmmmmmmmmmmmmmmmmjjjjllllllll",
"lllllllljjjjjjjjmmmmmmmmmmmmmmmmmmmmmmmmmmmmmmmmjjjjjjjjllllllll",
"lllllllljjjjjjjjmmmmmmmmmmmmmmmmmmmmmmmmmmmmmmmmjjjjjjjjllllllll",
"lllllllljjjjjjjjmmmmmmmmmmmmmmmmmmmmmmmmmmmmmmmmjjjjjjjjllllllll",
"lllllllljjjjjjjjmmmmmmmmmmmmmmmmmmmmmmmmmmmmmmmmjjjjjjjjllllllll",
"lllllllljjjjjjjjjjjjjjjjjjjjjjjjjjjjjjjjjjjjjjjjjjjjjjjjllllllll",
"lllllllljjjjjjjjjjjjjjjjjjjjjjjjjjjjjjjjjjjjjjjjjjjjjjjjllllllll",
"lllllllljjjjjjjjjjjjjjjjjjjjjjjjjjjjjjjjjjjjjjjjjjjjjjjjllllllll",
"lllllllljjjjjjjjjjjjjjjjjjjjjjjjjjjjjjjjjjjjjjjjjjjjjjjjllllllll",
"lllllllljjjjjjjjjjjjjjjjjjjjjjjjjjjjjjjjjjjjjjjjjjjjjjjjllllllll",
"lllllllljjjjjjjjjjjjjjjjjjjjjjjjjjjjjjjjjjjjjjjjjjjjjjjjllllllll",
"lllllllljjjjjjjjjjjjjjjjjjjjjjjjjjjjjjjjjjjjjjjjjjjjjjjjllllllll",
"lllllllljjjjjjjjjjjjjjjjjjjjjjjjjjjjjjjjjjjjjjjjjjjjjjjjllllllll",
"lllllllljjjjjjjjjjjjjjjjjjjjjjjjjjjjjjjjjjjjjjjjjjjjjjjjllllllll",
"lllllllljjjjjjjjjjjjjjjjjjjjjjjjjjjjjjjjjjjjjjjjjjjjjjjjllllllll",
"lllllllljjjjjjjjjjjjjjjjjjjjjjjjjjjjjjjjjjjjjjjjjjjjjjjjllllllll",
"lllllllljjjjjjjjjjjjjjjjjjjjjjjjjjjjjjjjjjjjjjjjjjjjjjjjllllllll",
"llllnnnnlllljjjjoooojjjjoooojjjjoooojjjjoooojjjjoooollllnnnnllll",
"llllnnnnlllljjjjoooojjjjoooojjjjoooojjjjoooojjjjoooollllnnnnllll",
"llllnnnnlllljjjjoooojjjjoooojjjjoooojjjjoooojjjjoooollllnnnnllll",
"llllnnnnlllljjjjoooojjjjoooojjjjoooojjjjoooojjjjoooollllnnnnllll",
"llllllllppppoooolllloooolllloooolllloooolllloooollllppppllllllll",
"llllllllppppoooolllloooolllloooolllloooolllloooollllppppllllllll",
"llllllllppppoooolllloooolllloooolllloooolllloooollllppppllllllll",
"llllllllppppoooolllloooolllloooolllloooolllloooollllppppllllllll",
"qqqqllllrrrrppppssssppppssssppppssssppppssssppppssssppppllllqqqq",
"qqqqllllrrrrppppssssppppssssppppssssppppssssppppssssppppllllqqqq",
"qqqqllllrrrrppppssssppppssssppppssssppppssssppppssssppppllllqqqq",
"qqqqllllrrrrppppssssppppssssppppssssppppssssppppssssppppllllqqqq",
"bbbbttttllllrrrrppppssssppppssssppppssssppppssssppppllllttttbbbb",
"bbbbttttllllrrrrppppssssppppssssppppssssppppssssppppllllttttbbbb",
"bbbbttttllllrrrrppppssssppppssssppppssssppppssssppppllllttttbbbb",
"bbbbttttllllrrrrppppssssppppssssppppssssppppssssppppllllttttbbbb",
"bbbbttttuuuubbbbrrrrppppssssppppssssppppssssppppbbbbuuuuttttbbbb",
"bbbbttttuuuubbbbrrrrppppssssppppssssppppssssppppbbbbuuuuttttbbbb",
"bbbbttttuuuubbbbrrrrppppssssppppssssppppssssppppbbbbuuuuttttbbbb",
"bbbbttttuuuubbbbrrrrppppssssppppssssppppssssppppbbbbuuuuttttbbbb",
"vvvvllllllllllllwwwwrrrrwwwwrrrrwwwwrrrrwwwwrrrrllllllllllllvvvv",
"vvvvllllllllllllwwwwrrrrwwwwrrrrwwwwrrrrwwwwrrrrllllllllllllvvvv",
"vvvvllllllllllllwwwwrrrrwwwwrrrrwwwwrrrrwwwwrrrrllllllllllllvvvv",
"vvvvllllllllllllwwwwrrrrwwwwrrrrwwwwrrrrwwwwrrrrllllllllllllvvvv",
"iiiillllllllllllbbbbwwwwrrrrwwwwrrrrwwwwrrrrbbbblllllllllllliiii",
"iiiillllllllllllbbbbwwwwrrrrwwwwrrrrwwwwrrrrbbbblllllllllllliiii",
"iiiillllllllllllbbbbwwwwrrrrwwwwrrrrwwwwrrrrbbbblllllllllllliiii",
"iiiillllllllllllbbbbwwwwrrrrwwwwrrrrwwwwrrrrbbbblllllllllllliiii",
"........llllllllxxxxbbbbbbbbbbbbbbbbbbbbbbbbxxxxllllllll........",
"........llllllllxxxxbbbbbbbbbbbbbbbbbbbbbbbbxxxxllllllll........",
"........llllllllxxxxbbbbbbbbbbbbbbbbbbbbbbbbxxxxllllllll........",
"........llllllllxxxxbbbbbbbbbbbbbbbbbbbbbbbbxxxxllllllll........",
"........llllllllyyyyyyyy####bbbbbbbb####yyyyyyyyllllllll........",
"........llllllllyyyyyyyy####bbbbbbbb####yyyyyyyyllllllll........",
"........llllllllyyyyyyyy####bbbbbbbb####yyyyyyyyllllllll........",
"........llllllllyyyyyyyy####bbbbbbbb####yyyyyyyyllllllll........",
"........llllllllssssssssllllzzzzzzzzllllssssssssllllllll........",
"........llllllllssssssssllllzzzzzzzzllllssssssssllllllll........",
"........llllllllssssssssllllzzzzzzzzllllssssssssllllllll........",
"........llllllllssssssssllllzzzzzzzzllllssssssssllllllll........",
"........llllAAAAllllllllAAAAllllllllAAAAllllllllAAAAllll........",
"........llllAAAAllllllllAAAAllllllllAAAAllllllllAAAAllll........",
"........llllAAAAllllllllAAAAllllllllAAAAllllllllAAAAllll........",
"........llllAAAAllllllllAAAAllllllllAAAAllllllllAAAAllll........"};
