/* XPM */
static char *dummy[]={
"64 128 32 1",
". c None",
"l c #3a3a50",
"s c #3d3d53",
"k c #3e3e54",
"i c #404057",
"D c #443d4e",
"b c #46465e",
"C c #47475f",
"f c #4e4f68",
"# c #565972",
"h c #574d5b",
"r c #5a444a",
"g c #5b5260",
"n c #5e424f",
"c c #605559",
"u c #605562",
"t c #665863",
"q c #6f494d",
"o c #6f5446",
"y c #715f67",
"a c #776a6b",
"A c #787d93",
"z c #7f686b",
"B c #8091a5",
"j c #8a6552",
"m c #8d7051",
"e c #957350",
"p c #a2394b",
"x c #ae4a52",
"d c #ba8d5e",
"w c #f69784",
"v c #ffb893",
"................................................................",
"................................................................",
"................................................................",
"................................................................",
"................................................................",
"................................................................",
"................................................................",
"................................................................",
"................................................................",
"................................................................",
"................................................................",
"................................................................",
"................................................................",
"................................................................",
"................................................................",
"................................................................",
"................................................................",
"................................................................",
"................................................................",
"................................................................",
"................................................................",
"................................................................",
"................................................................",
"................................................................",
"................................................................",
"................................................................",
"................................................................",
"................................................................",
"................................................................",
"................................................................",
"................................................................",
"................................................................",
"................................................................",
"................................................................",
"................................................................",
"................................................................",
"........####aaaa########bbbbbbbbbbbbbbbbbbbbbbbbccccbbbb........",
"........####aaaa########bbbbbbbbbbbbbbbbbbbbbbbbccccbbbb........",
"........####aaaa########bbbbbbbbbbbbbbbbbbbbbbbbccccbbbb........",
"........####aaaa########bbbbbbbbbbbbbbbbbbbbbbbbccccbbbb........",
"....####aaaa####ddddddddddddddddddddddddeeeeeeeebbbbccccbbbb....",
"....####aaaa####ddddddddddddddddddddddddeeeeeeeebbbbccccbbbb....",
"....####aaaa####ddddddddddddddddddddddddeeeeeeeebbbbccccbbbb....",
"....####aaaa####ddddddddddddddddddddddddeeeeeeeebbbbccccbbbb....",
"....ffff####ddddddddddddddddddddddddddddddddeeeeeeeebbbbbbbb....",
"....ffff####ddddddddddddddddddddddddddddddddeeeeeeeebbbbbbbb....",
"....ffff####ddddddddddddddddddddddddddddddddeeeeeeeebbbbbbbb....",
"....ffff####ddddddddddddddddddddddddddddddddeeeeeeeebbbbbbbb....",
"bbbbggggbbbbddddddddddddddddddddddddddddddddeeeeeeeebbbbhhhhbbbb",
"bbbbggggbbbbddddddddddddddddddddddddddddddddeeeeeeeebbbbhhhhbbbb",
"bbbbggggbbbbddddddddddddddddddddddddddddddddeeeeeeeebbbbhhhhbbbb",
"bbbbggggbbbbddddddddddddddddddddddddddddddddeeeeeeeebbbbhhhhbbbb",
"iiiibbbbjjjjeeeeddddddddddddddddddddddddeeeeeeeeeeeejjjjbbbbiiii",
"iiiibbbbjjjjeeeeddddddddddddddddddddddddeeeeeeeeeeeejjjjbbbbiiii",
"iiiibbbbjjjjeeeeddddddddddddddddddddddddeeeeeeeeeeeejjjjbbbbiiii",
"iiiibbbbjjjjeeeeddddddddddddddddddddddddeeeeeeeeeeeejjjjbbbbiiii",
"kkkklllljjjjeeeeeeeeeeeeeeeeeeeeeeeeeeeeeeeeeeeemmmmjjjjllllkkkk",
"kkkklllljjjjeeeeeeeeeeeeeeeeeeeeeeeeeeeeeeeeeeeemmmmjjjjllllkkkk",
"kkkklllljjjjeeeeeeeeeeeeeeeeeeeeeeeeeeeeeeeeeeeemmmmjjjjllllkkkk",
"kkkklllljjjjeeeeeeeeeeeeeeeeeeeeeeeeeeeeeeeeeeeemmmmjjjjllllkkkk",
"lllllllljjjjmmmmeeeeeeeeeeeeeeeeeeeeeeeeeeeemmmmmmmmjjjjllllllll",
"lllllllljjjjmmmmeeeeeeeeeeeeeeeeeeeeeeeeeeeemmmmmmmmjjjjllllllll",
"lllllllljjjjmmmmeeeeeeeeeeeeeeeeeeeeeeeeeeeemmmmmmmmjjjjllllllll",
"lllllllljjjjmmmmeeeeeeeeeeeeeeeeeeeeeeeeeeeemmmmmmmmjjjjllllllll",
"lllllllljjjjmmmmmmmmmmmmmmmmmmmmmmmmmmmmmmmmmmmmmmmmjjjjllllllll",
"lllllllljjjjmmmmmmmmmmmmmmmmmmmmmmmmmmmmmmmmmmmmmmmmjjjjllllllll",
"lllllllljjjjmmmmmmmmmmmmmmmmmmmmmmmmmmmmmmmmmmmmmmmmjjjjllllllll",
"lllllllljjjjmmmmmmmmmmmmmmmmmmmmmmmmmmmmmmmmmmmmmmmmjjjjllllllll",
"lllllllljjjjjjjjmmmmmmmmmmmmmmmmmmmmmmmmmmmmmmmmjjjjjjjjllllllll",
"lllllllljjjjjjjjmmmmmmmmmmmmmmmmmmmmmmmmmmmmmmmmjjjjjjjjllllllll",
"lllllllljjjjjjjjmmmmmmmmmmmmmmmmmmmmmmmmmmmmmmmmjjjjjjjjllllllll",
"lllllllljjjjjjjjmmmmmmmmmmmmmmmmmmmmmmmmmmmmmmmmjjjjjjjjllllllll",
"lllllllljjjjjjjjjjjjjjjjjjjjjjjjjjjjjjjjjjjjjjjjjjjjjjjjllllllll",
"lllllllljjjjjjjjjjjjjjjjjjjjjjjjjjjjjjjjjjjjjjjjjjjjjjjjllllllll",
"lllllllljjjjjjjjjjjjjjjjjjjjjjjjjjjjjjjjjjjjjjjjjjjjjjjjllllllll",
"lllllllljjjjjjjjjjjjjjjjjjjjjjjjjjjjjjjjjjjjjjjjjjjjjjjjllllllll",
"lllllllljjjjjjjjjjjjjjjjjjjjjjjjjjjjjjjjjjjjjjjjjjjjjjjjllllllll",
"lllllllljjjjjjjjjjjjjjjjjjjjjjjjjjjjjjjjjjjjjjjjjjjjjjjjllllllll",
"lllllllljjjjjjjjjjjjjjjjjjjjjjjjjjjjjjjjjjjjjjjjjjjjjjjjllllllll",
"lllllllljjjjjjjjjjjjjjjjjjjjjjjjjjjjjjjjjjjjjjjjjjjjjjjjllllllll",
"lllllllljjjjjjjjjjjjjjjjjjjjjjjjjjjjjjjjjjjjjjjjjjjjjjjjllllllll",
"lllllllljjjjjjjjjjjjjjjjjjjjjjjjjjjjjjjjjjjjjjjjjjjjjjjjllllllll",
"lllllllljjjjjjjjjjjjjjjjjjjjjjjjjjjjjjjjjjjjjjjjjjjjjjjjllllllll",
"lllllllljjjjjjjjjjjjjjjjjjjjjjjjjjjjjjjjjjjjjjjjjjjjjjjjllllllll",
"llllnnnnlllljjjjoooojjjjoooojjjjoooojjjjoooojjjjoooollllnnnnllll",
"llllnnnnlllljjjjoooojjjjoooojjjjoooojjjjoooojjjjoooollllnnnnllll",
"llllnnnnlllljjjjoooojjjjoooojjjjoooojjjjoooojjjjoooollllnnnnllll",
"llllnnnnlllljjjjoooojjjjoooojjjjoooojjjjoooojjjjoooollllnnnnllll",
"llllllllppppoooolllloooolllloooolllloooolllloooollllppppllllllll",
"llllllllppppoooolllloooolllloooolllloooolllloooollllppppllllllll",
"llllllllppppoooolllloooolllloooolllloooolllloooollllppppllllllll",
"llllllllppppoooolllloooolllloooolllloooolllloooollllppppllllllll",
"llllllllqqqqpppprrrrpppprrrrpppprrrrpppprrrrpppprrrrppppllllssss",
"llllllllqqqqpppprrrrpppprrrrpppprrrrpppprrrrpppprrrrppppllllssss",
"llllllllqqqqpppprrrrpppprrrrpppprrrrpppprrrrpppprrrrppppllllssss",
"llllllllqqqqpppprrrrpppprrrrpppprrrrpppprrrrpppprrrrppppllllssss",
"ttttllllqqqqqqqqpppprrrrpppprrrrpppprrrrpppprrrrppppqqqqlllluuuu",
"ttttllllqqqqqqqqpppprrrrpppprrrrpppprrrrpppprrrrppppqqqqlllluuuu",
"ttttllllqqqqqqqqpppprrrrpppprrrrpppprrrrpppprrrrppppqqqqlllluuuu",
"ttttllllqqqqqqqqpppprrrrpppprrrrpppprrrrpppprrrrppppqqqqlllluuuu",
"bbbbvvvvllllbbbbqqqqpppprrrrpppprrrrpppprrrrppppbbbbllllvvvvbbbb",
"bbbbvvvvllllbbbbqqqqpppprrrrpppprrrrpppprrrrppppbbbbllllvvvvbbbb",
"bbbbvvvvllllbbbbqqqqpppprrrrpppprrrrpppprrrrppppbbbbllllvvvvbbbb",
"bbbbvvvvllllbbbbqqqqpppprrrrpppprrrrpppprrrrppppbbbbllllvvvvbbbb",
"bbbbvvvvwwwwllllxxxxqqqqxxxxqqqqxxxxqqqqxxxxqqqqllllwwwwvvvvbbbb",
"bbbbvvvvwwwwllllxxxxqqqqxxxxqqqqxxxxqqqqxxxxqqqqllllwwwwvvvvbbbb",
"bbbbvvvvwwwwllllxxxxqqqqxxxxqqqqxxxxqqqqxxxxqqqqllllwwwwvvvvbbbb",
"bbbbvvvvwwwwllllxxxxqqqqxxxxqqqqxxxxqqqqxxxxqqqqllllwwwwvvvvbbbb",
"yyyyllllllllllllbbbbxxxxqqqqxxxxqqqqxxxxqqqqbbbbllllllllllllzzzz",
"yyyyllllllllllllbbbbxxxxqqqqxxxxqqqqxxxxqqqqbbbbllllllllllllzzzz",
"yyyyllllllllllllbbbbxxxxqqqqxxxxqqqqxxxxqqqqbbbbllllllllllllzzzz",
"yyyyllllllllllllbbbbxxxxqqqqxxxxqqqqxxxxqqqqbbbbllllllllllllzzzz",
"llllllllllllllllAAAAbbbbbbbbbbbbbbbbbbbbbbbbAAAAllllllllllllllll",
"llllllllllllllllAAAAbbbbbbbbbbbbbbbbbbbbbbbbAAAAllllllllllllllll",
"llllllllllllllllAAAAbbbbbbbbbbbbbbbbbbbbbbbbAAAAllllllllllllllll",
"llllllllllllllllAAAAbbbbbbbbbbbbbbbbbbbbbbbbAAAAllllllllllllllll",
"........llllllllBBBBBBBB####bbbbbbbb####BBBBBBBBllllllll........",
"........llllllllBBBBBBBB####bbbbbbbb####BBBBBBBBllllllll........",
"........llllllllBBBBBBBB####bbbbbbbb####BBBBBBBBllllllll........",
"........llllllllBBBBBBBB####bbbbbbbb####BBBBBBBBllllllll........",
"........llllllllrrrrrrrrllllCCCCCCCCllllrrrrrrrrllllllll........",
"........llllllllrrrrrrrrllllCCCCCCCCllllrrrrrrrrllllllll........",
"........llllllllrrrrrrrrllllCCCCCCCCllllrrrrrrrrllllllll........",
"........llllllllrrrrrrrrllllCCCCCCCCllllrrrrrrrrllllllll........",
"........llllDDDDllllllllDDDDllllllllDDDDllllllllDDDDllll........",
"........llllDDDDllllllllDDDDllllllllDDDDllllllllDDDDllll........",
"........llllDDDDllllllllDDDDllllllllDDDDllllllllDDDDllll........",
"........llllDDDDllllllllDDDDllllllllDDDDllllllllDDDDllll........"};
