/* XPM */
static char *dummy[]={
"64 128 40 1",
". c None",
"p c #3a3a50",
"H c #3c3c52",
"o c #3e3e54",
"m c #404057",
"L c #443d4e",
"c c #46465e",
"K c #47475f",
"b c #4b4c64",
"i c #4e4f68",
"a c #50526b",
"u c #524752",
"# c #565972",
"l c #574d5b",
"t c #5a444a",
"h c #5d5459",
"k c #5d565f",
"e c #605559",
"w c #665863",
"s c #6c5981",
"A c #6e5c64",
"y c #6f494d",
"F c #74626b",
"d c #776a6b",
"I c #787d93",
"J c #8091a5",
"G c #836c6f",
"n c #8a6552",
"z c #8b8bab",
"j c #8d7051",
"g c #957350",
"D c #9da3b7",
"x c #a2394b",
"C c #ae4a52",
"f c #ba8d5e",
"v c #e19b9b",
"E c #f69784",
"q c #f6ae9f",
"B c #ffb893",
"r c #ffcbb0",
"................................................................",
"................................................................",
"................................................................",
"................................................................",
"................................................................",
"................................................................",
"................................................................",
"................................................................",
"................................................................",
"................................................................",
"................................................................",
"................................................................",
"................................................................",
"................................................................",
"................................................................",
"................................................................",
"................................................................",
"................................................................",
"................................................................",
"................................................................",
"................................................................",
"................................................................",
"................................................................",
"................................................................",
"................................................................",
"................................................................",
"................................................................",
"................................................................",
"................................................................",
"................................................................",
"................................................................",
"................................................................",
"................................................................",
"................................................................",
"................................................................",
"................................................................",
"............########aaaabbbbcccccccccccccccccccccccc............",
"............########aaaabbbbcccccccccccccccccccccccc............",
"............########aaaabbbbcccccccccccccccccccccccc............",
"............########aaaabbbbcccccccccccccccccccccccc............",
"........####dddd########cccccccccccccccccccccccceeeecccc........",
"........####dddd########cccccccccccccccccccccccceeeecccc........",
"........####dddd########cccccccccccccccccccccccceeeecccc........",
"........####dddd########cccccccccccccccccccccccceeeecccc........",
"....####dddd####ffffffffffffffffffffffffggggggggcccchhhhcccc....",
"....####dddd####ffffffffffffffffffffffffggggggggcccchhhhcccc....",
"....####dddd####ffffffffffffffffffffffffggggggggcccchhhhcccc....",
"....####dddd####ffffffffffffffffffffffffggggggggcccchhhhcccc....",
"....iiii####ffffffffffffffffffffffffffffffffggggjjjjcccccccc....",
"....iiii####ffffffffffffffffffffffffffffffffggggjjjjcccccccc....",
"....iiii####ffffffffffffffffffffffffffffffffggggjjjjcccccccc....",
"....iiii####ffffffffffffffffffffffffffffffffggggjjjjcccccccc....",
"cccckkkkccccffffffffffffffffffffffffffffffffggggjjjjccccllllcccc",
"cccckkkkccccffffffffffffffffffffffffffffffffggggjjjjccccllllcccc",
"cccckkkkccccffffffffffffffffffffffffffffffffggggjjjjccccllllcccc",
"cccckkkkccccffffffffffffffffffffffffffffffffggggjjjjccccllllcccc",
"mmmmccccggggggggffffffffffffffffffffffffggggggggjjjjnnnnccccmmmm",
"mmmmccccggggggggffffffffffffffffffffffffggggggggjjjjnnnnccccmmmm",
"mmmmccccggggggggffffffffffffffffffffffffggggggggjjjjnnnnccccmmmm",
"mmmmccccggggggggffffffffffffffffffffffffggggggggjjjjnnnnccccmmmm",
"ooooppppggggggggggggggggggggggggggggggggggggjjjjjjjjjjjjppppoooo",
"ooooppppggggggggggggggggggggggggggggggggggggjjjjjjjjjjjjppppoooo",
"ooooppppggggggggggggggggggggggggggggggggggggjjjjjjjjjjjjppppoooo",
"ooooppppggggggggggggggggggggggggggggggggggggjjjjjjjjjjjjppppoooo",
"ppppppppjjjjggggggggggggjjjjjjjjjjjjjjjjjjjjjjjjjjjjjjjjpppppppp",
"ppppppppjjjjggggggggggggjjjjjjjjjjjjjjjjjjjjjjjjjjjjjjjjpppppppp",
"ppppppppjjjjggggggggggggjjjjjjjjjjjjjjjjjjjjjjjjjjjjjjjjpppppppp",
"ppppppppjjjjggggggggggggjjjjjjjjjjjjjjjjjjjjjjjjjjjjjjjjpppppppp",
"ppppppppnnnnjjjjjjjjjjjjjjjjqqqqrrrrjjjjjjjjjjjjjjjjjjjjpppppppp",
"ppppppppnnnnjjjjjjjjjjjjjjjjqqqqrrrrjjjjjjjjjjjjjjjjjjjjpppppppp",
"ppppppppnnnnjjjjjjjjjjjjjjjjqqqqrrrrjjjjjjjjjjjjjjjjjjjjpppppppp",
"ppppppppnnnnjjjjjjjjjjjjjjjjqqqqrrrrjjjjjjjjjjjjjjjjjjjjpppppppp",
"ppppppppnnnnjjjjjjjjqqqqqqqqrrrrrrrrjjjjnnnnjjjjjjjjnnnnpppppppp",
"ppppppppnnnnjjjjjjjjqqqqqqqqrrrrrrrrjjjjnnnnjjjjjjjjnnnnpppppppp",
"ppppppppnnnnjjjjjjjjqqqqqqqqrrrrrrrrjjjjnnnnjjjjjjjjnnnnpppppppp",
"ppppppppnnnnjjjjjjjjqqqqqqqqrrrrrrrrjjjjnnnnjjjjjjjjnnnnpppppppp",
"ppppppppnnnnjjjjqqqqqqqqrrrrrrrrrrrrjjjjqqqqjjjjjjjjnnnnpppppppp",
"ppppppppnnnnjjjjqqqqqqqqrrrrrrrrrrrrjjjjqqqqjjjjjjjjnnnnpppppppp",
"ppppppppnnnnjjjjqqqqqqqqrrrrrrrrrrrrjjjjqqqqjjjjjjjjnnnnpppppppp",
"ppppppppnnnnjjjjqqqqqqqqrrrrrrrrrrrrjjjjqqqqjjjjjjjjnnnnpppppppp",
"ppppppppnnnnjjjjrrrrssssrrrrrrrrrrrrrrrrssssjjjjjjjjnnnnpppppppp",
"ppppppppnnnnjjjjrrrrssssrrrrrrrrrrrrrrrrssssjjjjjjjjnnnnpppppppp",
"ppppppppnnnnjjjjrrrrssssrrrrrrrrrrrrrrrrssssjjjjjjjjnnnnpppppppp",
"ppppppppnnnnjjjjrrrrssssrrrrrrrrrrrrrrrrssssjjjjjjjjnnnnpppppppp",
"ppppppppnnnnqqqqrrrrttttrrrrrrrrrrrrrrrrttttjjjjqqqqnnnnpppppppp",
"ppppppppnnnnqqqqrrrrttttrrrrrrrrrrrrrrrrttttjjjjqqqqnnnnpppppppp",
"ppppppppnnnnqqqqrrrrttttrrrrrrrrrrrrrrrrttttjjjjqqqqnnnnpppppppp",
"ppppppppnnnnqqqqrrrrttttrrrrrrrrrrrrrrrrttttjjjjqqqqnnnnpppppppp",
"ppppuuuuccccqqqqvvvvvvvvqqqqqqqqqqqqqqqqvvvvvvvvqqqqccccuuuupppp",
"ppppuuuuccccqqqqvvvvvvvvqqqqqqqqqqqqqqqqvvvvvvvvqqqqccccuuuupppp",
"ppppuuuuccccqqqqvvvvvvvvqqqqqqqqqqqqqqqqvvvvvvvvqqqqccccuuuupppp",
"ppppuuuuccccqqqqvvvvvvvvqqqqqqqqqqqqqqqqvvvvvvvvqqqqccccuuuupppp",
"ppppppppttttcccccccccccccccc########ccccccccccccccccttttpppppppp",
"ppppppppttttcccccccccccccccc########ccccccccccccccccttttpppppppp",
"ppppppppttttcccccccccccccccc########ccccccccccccccccttttpppppppp",
"ppppppppttttcccccccccccccccc########ccccccccccccccccttttpppppppp",
"wwwwppppttttxxxxyyyyxxxxppppzzzzzzzzppppttttxxxxttttttttppppAAAA",
"wwwwppppttttxxxxyyyyxxxxppppzzzzzzzzppppttttxxxxttttttttppppAAAA",
"wwwwppppttttxxxxyyyyxxxxppppzzzzzzzzppppttttxxxxttttttttppppAAAA",
"wwwwppppttttxxxxyyyyxxxxppppzzzzzzzzppppttttxxxxttttttttppppAAAA",
"ccccBBBBppppyyyyCCCCyyyyppppDDDDDDDDppppCCCCyyyyCCCCppppBBBBcccc",
"ccccBBBBppppyyyyCCCCyyyyppppDDDDDDDDppppCCCCyyyyCCCCppppBBBBcccc",
"ccccBBBBppppyyyyCCCCyyyyppppDDDDDDDDppppCCCCyyyyCCCCppppBBBBcccc",
"ccccBBBBppppyyyyCCCCyyyyppppDDDDDDDDppppCCCCyyyyCCCCppppBBBBcccc",
"ccccBBBBEEEEppppyyyyCCCCppppDDDDDDDDppppyyyyCCCCppppEEEEBBBBcccc",
"ccccBBBBEEEEppppyyyyCCCCppppDDDDDDDDppppyyyyCCCCppppEEEEBBBBcccc",
"ccccBBBBEEEEppppyyyyCCCCppppDDDDDDDDppppyyyyCCCCppppEEEEBBBBcccc",
"ccccBBBBEEEEppppyyyyCCCCppppDDDDDDDDppppyyyyCCCCppppEEEEBBBBcccc",
"FFFFccccppppppppccccccccpppp########ppppccccccccppppppppccccGGGG",
"FFFFccccppppppppccccccccpppp########ppppccccccccppppppppccccGGGG",
"FFFFccccppppppppccccccccpppp########ppppccccccccppppppppccccGGGG",
"FFFFccccppppppppccccccccpppp########ppppccccccccppppppppccccGGGG",
"ccccmmmmHHHHppppIIIIIIIIIIIIIIIIIIIIIIIIIIIIIIIIppppHHHHmmmmcccc",
"ccccmmmmHHHHppppIIIIIIIIIIIIIIIIIIIIIIIIIIIIIIIIppppHHHHmmmmcccc",
"ccccmmmmHHHHppppIIIIIIIIIIIIIIIIIIIIIIIIIIIIIIIIppppHHHHmmmmcccc",
"ccccmmmmHHHHppppIIIIIIIIIIIIIIIIIIIIIIIIIIIIIIIIppppHHHHmmmmcccc",
"........ppppppppJJJJJJJJ####cccccccc####JJJJJJJJpppppppp........",
"........ppppppppJJJJJJJJ####cccccccc####JJJJJJJJpppppppp........",
"........ppppppppJJJJJJJJ####cccccccc####JJJJJJJJpppppppp........",
"........ppppppppJJJJJJJJ####cccccccc####JJJJJJJJpppppppp........",
"........ppppppppttttttttppppKKKKKKKKppppttttttttpppppppp........",
"........ppppppppttttttttppppKKKKKKKKppppttttttttpppppppp........",
"........ppppppppttttttttppppKKKKKKKKppppttttttttpppppppp........",
"........ppppppppttttttttppppKKKKKKKKppppttttttttpppppppp........",
"........ppppLLLLppppppppLLLLppppppppLLLLppppppppLLLLpppp........",
"........ppppLLLLppppppppLLLLppppppppLLLLppppppppLLLLpppp........",
"........ppppLLLLppppppppLLLLppppppppLLLLppppppppLLLLpppp........",
"........ppppLLLLppppppppLLLLppppppppLLLLppppppppLLLLpppp........"};
