/* XPM */
static char *dummy[]={
"64 128 38 1",
". c None",
"n c #3a3a50",
"F c #3c3c52",
"v c #3d3d53",
"m c #3e3e54",
"k c #404057",
"J c #443d4e",
"b c #46465e",
"I c #47475f",
"g c #4e4f68",
"r c #524752",
"# c #565972",
"j c #574d5b",
"q c #5a444a",
"f c #5d5459",
"i c #5d565f",
"c c #605559",
"A c #605562",
"w c #665863",
"y c #6f494d",
"D c #74626b",
"a c #776a6b",
"G c #787d93",
"H c #8091a5",
"E c #836c6f",
"l c #8a6552",
"u c #8b8bab",
"h c #8d7051",
"e c #957350",
"z c #9da3b7",
"t c #a2394b",
"x c #ae4a52",
"d c #ba8d5e",
"s c #e19b9b",
"C c #f69784",
"o c #f6ae9f",
"B c #ffb893",
"p c #ffcbb0",
"................................................................",
"................................................................",
"................................................................",
"................................................................",
"................................................................",
"................................................................",
"................................................................",
"................................................................",
"................................................................",
"................................................................",
"................................................................",
"................................................................",
"................................................................",
"................................................................",
"................................................................",
"................................................................",
"................................................................",
"................................................................",
"................................................................",
"................................................................",
"................................................................",
"................................................................",
"................................................................",
"................................................................",
"................................................................",
"................................................................",
"................................................................",
"................................................................",
"................................................................",
"................................................................",
"................................................................",
"................................................................",
"................................................................",
"................................................................",
"................................................................",
"................................................................",
"........####aaaa########bbbbbbbbbbbbbbbbbbbbbbbbccccbbbb........",
"........####aaaa########bbbbbbbbbbbbbbbbbbbbbbbbccccbbbb........",
"........####aaaa########bbbbbbbbbbbbbbbbbbbbbbbbccccbbbb........",
"........####aaaa########bbbbbbbbbbbbbbbbbbbbbbbbccccbbbb........",
"....####aaaa####ddddddddddddddddddddddddeeeeeeeebbbbffffbbbb....",
"....####aaaa####ddddddddddddddddddddddddeeeeeeeebbbbffffbbbb....",
"....####aaaa####ddddddddddddddddddddddddeeeeeeeebbbbffffbbbb....",
"....####aaaa####ddddddddddddddddddddddddeeeeeeeebbbbffffbbbb....",
"....gggg####ddddddddddddddddddddddddddddddddeeeehhhhbbbbbbbb....",
"....gggg####ddddddddddddddddddddddddddddddddeeeehhhhbbbbbbbb....",
"....gggg####ddddddddddddddddddddddddddddddddeeeehhhhbbbbbbbb....",
"....gggg####ddddddddddddddddddddddddddddddddeeeehhhhbbbbbbbb....",
"bbbbiiiibbbbddddddddddddddddddddddddddddddddeeeehhhhbbbbjjjjbbbb",
"bbbbiiiibbbbddddddddddddddddddddddddddddddddeeeehhhhbbbbjjjjbbbb",
"bbbbiiiibbbbddddddddddddddddddddddddddddddddeeeehhhhbbbbjjjjbbbb",
"bbbbiiiibbbbddddddddddddddddddddddddddddddddeeeehhhhbbbbjjjjbbbb",
"kkkkbbbbeeeeeeeeddddddddddddddddddddddddeeeeeeeehhhhllllbbbbkkkk",
"kkkkbbbbeeeeeeeeddddddddddddddddddddddddeeeeeeeehhhhllllbbbbkkkk",
"kkkkbbbbeeeeeeeeddddddddddddddddddddddddeeeeeeeehhhhllllbbbbkkkk",
"kkkkbbbbeeeeeeeeddddddddddddddddddddddddeeeeeeeehhhhllllbbbbkkkk",
"mmmmnnnneeeeeeeeeeeeeeeeeeeeeeeeeeeeeeeeeeeehhhhhhhhhhhhnnnnmmmm",
"mmmmnnnneeeeeeeeeeeeeeeeeeeeeeeeeeeeeeeeeeeehhhhhhhhhhhhnnnnmmmm",
"mmmmnnnneeeeeeeeeeeeeeeeeeeeeeeeeeeeeeeeeeeehhhhhhhhhhhhnnnnmmmm",
"mmmmnnnneeeeeeeeeeeeeeeeeeeeeeeeeeeeeeeeeeeehhhhhhhhhhhhnnnnmmmm",
"nnnnnnnnhhhheeeeeeeeeeeehhhhhhhhhhhhhhhhhhhhhhhhhhhhhhhhnnnnnnnn",
"nnnnnnnnhhhheeeeeeeeeeeehhhhhhhhhhhhhhhhhhhhhhhhhhhhhhhhnnnnnnnn",
"nnnnnnnnhhhheeeeeeeeeeeehhhhhhhhhhhhhhhhhhhhhhhhhhhhhhhhnnnnnnnn",
"nnnnnnnnhhhheeeeeeeeeeeehhhhhhhhhhhhhhhhhhhhhhhhhhhhhhhhnnnnnnnn",
"nnnnnnnnllllhhhhhhhhhhhhhhhhoooopppphhhhhhhhhhhhhhhhhhhhnnnnnnnn",
"nnnnnnnnllllhhhhhhhhhhhhhhhhoooopppphhhhhhhhhhhhhhhhhhhhnnnnnnnn",
"nnnnnnnnllllhhhhhhhhhhhhhhhhoooopppphhhhhhhhhhhhhhhhhhhhnnnnnnnn",
"nnnnnnnnllllhhhhhhhhhhhhhhhhoooopppphhhhhhhhhhhhhhhhhhhhnnnnnnnn",
"nnnnnnnnllllhhhhhhhhoooooooopppppppphhhhllllhhhhhhhhllllnnnnnnnn",
"nnnnnnnnllllhhhhhhhhoooooooopppppppphhhhllllhhhhhhhhllllnnnnnnnn",
"nnnnnnnnllllhhhhhhhhoooooooopppppppphhhhllllhhhhhhhhllllnnnnnnnn",
"nnnnnnnnllllhhhhhhhhoooooooopppppppphhhhllllhhhhhhhhllllnnnnnnnn",
"nnnnnnnnllllhhhhoooooooopppppppppppphhhhoooohhhhhhhhllllnnnnnnnn",
"nnnnnnnnllllhhhhoooooooopppppppppppphhhhoooohhhhhhhhllllnnnnnnnn",
"nnnnnnnnllllhhhhoooooooopppppppppppphhhhoooohhhhhhhhllllnnnnnnnn",
"nnnnnnnnllllhhhhoooooooopppppppppppphhhhoooohhhhhhhhllllnnnnnnnn",
"nnnnnnnnllllhhhhppppnnnnppppppppppppppppnnnnhhhhhhhhllllnnnnnnnn",
"nnnnnnnnllllhhhhppppnnnnppppppppppppppppnnnnhhhhhhhhllllnnnnnnnn",
"nnnnnnnnllllhhhhppppnnnnppppppppppppppppnnnnhhhhhhhhllllnnnnnnnn",
"nnnnnnnnllllhhhhppppnnnnppppppppppppppppnnnnhhhhhhhhllllnnnnnnnn",
"nnnnnnnnllllooooppppqqqqppppppppppppppppqqqqhhhhoooollllnnnnnnnn",
"nnnnnnnnllllooooppppqqqqppppppppppppppppqqqqhhhhoooollllnnnnnnnn",
"nnnnnnnnllllooooppppqqqqppppppppppppppppqqqqhhhhoooollllnnnnnnnn",
"nnnnnnnnllllooooppppqqqqppppppppppppppppqqqqhhhhoooollllnnnnnnnn",
"nnnnrrrrbbbboooossssssssoooooooooooooooossssssssoooobbbbrrrrnnnn",
"nnnnrrrrbbbboooossssssssoooooooooooooooossssssssoooobbbbrrrrnnnn",
"nnnnrrrrbbbboooossssssssoooooooooooooooossssssssoooobbbbrrrrnnnn",
"nnnnrrrrbbbboooossssssssoooooooooooooooossssssssoooobbbbrrrrnnnn",
"nnnnnnnnqqqqbbbbbbbbbbbbbbbb########bbbbbbbbbbbbbbbbqqqqnnnnnnnn",
"nnnnnnnnqqqqbbbbbbbbbbbbbbbb########bbbbbbbbbbbbbbbbqqqqnnnnnnnn",
"nnnnnnnnqqqqbbbbbbbbbbbbbbbb########bbbbbbbbbbbbbbbbqqqqnnnnnnnn",
"nnnnnnnnqqqqbbbbbbbbbbbbbbbb########bbbbbbbbbbbbbbbbqqqqnnnnnnnn",
"nnnnnnnnttttqqqqttttqqqqnnnnuuuuuuuunnnnttttqqqqttttqqqqnnnnvvvv",
"nnnnnnnnttttqqqqttttqqqqnnnnuuuuuuuunnnnttttqqqqttttqqqqnnnnvvvv",
"nnnnnnnnttttqqqqttttqqqqnnnnuuuuuuuunnnnttttqqqqttttqqqqnnnnvvvv",
"nnnnnnnnttttqqqqttttqqqqnnnnuuuuuuuunnnnttttqqqqttttqqqqnnnnvvvv",
"wwwwnnnnqqqqxxxxyyyyxxxxnnnnzzzzzzzznnnnqqqqxxxxyyyyxxxxnnnnAAAA",
"wwwwnnnnqqqqxxxxyyyyxxxxnnnnzzzzzzzznnnnqqqqxxxxyyyyxxxxnnnnAAAA",
"wwwwnnnnqqqqxxxxyyyyxxxxnnnnzzzzzzzznnnnqqqqxxxxyyyyxxxxnnnnAAAA",
"wwwwnnnnqqqqxxxxyyyyxxxxnnnnzzzzzzzznnnnqqqqxxxxyyyyxxxxnnnnAAAA",
"bbbbBBBBnnnnyyyyxxxxyyyynnnnzzzzzzzznnnnxxxxyyyyxxxxnnnnBBBBbbbb",
"bbbbBBBBnnnnyyyyxxxxyyyynnnnzzzzzzzznnnnxxxxyyyyxxxxnnnnBBBBbbbb",
"bbbbBBBBnnnnyyyyxxxxyyyynnnnzzzzzzzznnnnxxxxyyyyxxxxnnnnBBBBbbbb",
"bbbbBBBBnnnnyyyyxxxxyyyynnnnzzzzzzzznnnnxxxxyyyyxxxxnnnnBBBBbbbb",
"bbbbBBBBCCCCnnnnyyyyxxxxnnnnzzzzzzzznnnnyyyyxxxxnnnnCCCCBBBBbbbb",
"bbbbBBBBCCCCnnnnyyyyxxxxnnnnzzzzzzzznnnnyyyyxxxxnnnnCCCCBBBBbbbb",
"bbbbBBBBCCCCnnnnyyyyxxxxnnnnzzzzzzzznnnnyyyyxxxxnnnnCCCCBBBBbbbb",
"bbbbBBBBCCCCnnnnyyyyxxxxnnnnzzzzzzzznnnnyyyyxxxxnnnnCCCCBBBBbbbb",
"DDDDbbbbnnnnnnnnbbbbbbbbnnnn########nnnnbbbbbbbbnnnnnnnnbbbbEEEE",
"DDDDbbbbnnnnnnnnbbbbbbbbnnnn########nnnnbbbbbbbbnnnnnnnnbbbbEEEE",
"DDDDbbbbnnnnnnnnbbbbbbbbnnnn########nnnnbbbbbbbbnnnnnnnnbbbbEEEE",
"DDDDbbbbnnnnnnnnbbbbbbbbnnnn########nnnnbbbbbbbbnnnnnnnnbbbbEEEE",
"bbbbkkkkFFFFnnnnGGGGGGGGGGGGGGGGGGGGGGGGGGGGGGGGnnnnFFFFkkkkbbbb",
"bbbbkkkkFFFFnnnnGGGGGGGGGGGGGGGGGGGGGGGGGGGGGGGGnnnnFFFFkkkkbbbb",
"bbbbkkkkFFFFnnnnGGGGGGGGGGGGGGGGGGGGGGGGGGGGGGGGnnnnFFFFkkkkbbbb",
"bbbbkkkkFFFFnnnnGGGGGGGGGGGGGGGGGGGGGGGGGGGGGGGGnnnnFFFFkkkkbbbb",
"........nnnnnnnnHHHHHHHH####bbbbbbbb####HHHHHHHHnnnnnnnn........",
"........nnnnnnnnHHHHHHHH####bbbbbbbb####HHHHHHHHnnnnnnnn........",
"........nnnnnnnnHHHHHHHH####bbbbbbbb####HHHHHHHHnnnnnnnn........",
"........nnnnnnnnHHHHHHHH####bbbbbbbb####HHHHHHHHnnnnnnnn........",
"........nnnnnnnnqqqqqqqqnnnnIIIIIIIInnnnqqqqqqqqnnnnnnnn........",
"........nnnnnnnnqqqqqqqqnnnnIIIIIIIInnnnqqqqqqqqnnnnnnnn........",
"........nnnnnnnnqqqqqqqqnnnnIIIIIIIInnnnqqqqqqqqnnnnnnnn........",
"........nnnnnnnnqqqqqqqqnnnnIIIIIIIInnnnqqqqqqqqnnnnnnnn........",
"........nnnnJJJJnnnnnnnnJJJJnnnnnnnnJJJJnnnnnnnnJJJJnnnn........",
"........nnnnJJJJnnnnnnnnJJJJnnnnnnnnJJJJnnnnnnnnJJJJnnnn........",
"........nnnnJJJJnnnnnnnnJJJJnnnnnnnnJJJJnnnnnnnnJJJJnnnn........",
"........nnnnJJJJnnnnnnnnJJJJnnnnnnnnJJJJnnnnnnnnJJJJnnnn........"};
