/* XPM */
static char *dummy[]={
"64 128 37 1",
". c None",
"m c #3a3a50",
"F c #3d3d53",
"l c #3e3e54",
"j c #404057",
"I c #443d4e",
"# c #46465e",
"E c #473d4f",
"t c #474860",
"s c #50526b",
"H c #51576c",
"q c #52546d",
"b c #565972",
"k c #574d5b",
"i c #57505a",
"v c #584c55",
"u c #5a444a",
"a c #5d5459",
"h c #635a60",
"x c #665566",
"g c #6b6166",
"A c #6f494d",
"c c #776a6b",
"D c #787d93",
"w c #7b6a70",
"G c #8091a5",
"n c #8a6552",
"d c #8d7051",
"e c #957350",
"y c #a2394b",
"z c #ae4a52",
"f c #ba8d5e",
"o c #e19b9b",
"C c #f69784",
"p c #f6ae9f",
"B c #ffb893",
"r c #ffcbb0",
"................................................................",
"................................................................",
"................................................................",
"................................................................",
"................................................................",
"................................................................",
"................................................................",
"................................................................",
"................................................................",
"................................................................",
"................................................................",
"................................................................",
"................................................................",
"................................................................",
"................................................................",
"................................................................",
"................................................................",
"................................................................",
"................................................................",
"................................................................",
"................................................................",
"................................................................",
"................................................................",
"................................................................",
"................................................................",
"................................................................",
"................................................................",
"................................................................",
"................................................................",
"................................................................",
"................................................................",
"................................................................",
"................................................................",
"................................................................",
"................................................................",
"................................................................",
"........####aaaa####################bbbbbbbbccccbbbb............",
"........####aaaa####################bbbbbbbbccccbbbb............",
"........####aaaa####################bbbbbbbbccccbbbb............",
"........####aaaa####################bbbbbbbbccccbbbb............",
"....####aaaa####ddddeeeeffffffffffffffffffffbbbbggggbbbb........",
"....####aaaa####ddddeeeeffffffffffffffffffffbbbbggggbbbb........",
"....####aaaa####ddddeeeeffffffffffffffffffffbbbbggggbbbb........",
"....####aaaa####ddddeeeeffffffffffffffffffffbbbbggggbbbb........",
"....########ddddeeeeffffffffffffffffffffeeeeeeeebbbbhhhh####....",
"....########ddddeeeeffffffffffffffffffffeeeeeeeebbbbhhhh####....",
"....########ddddeeeeffffffffffffffffffffeeeeeeeebbbbhhhh####....",
"....########ddddeeeeffffffffffffffffffffeeeeeeeebbbbhhhh####....",
"####iiii####ddddeeeeffffffffffffeeeeeeeeeeeeeeeedddd########....",
"####iiii####ddddeeeeffffffffffffeeeeeeeeeeeeeeeedddd########....",
"####iiii####ddddeeeeffffffffffffeeeeeeeeeeeeeeeedddd########....",
"####iiii####ddddeeeeffffffffffffeeeeeeeeeeeeeeeedddd########....",
"jjjj####ddddddddeeeeffffffffeeeeeeeeeeeeeeeeeeeedddd####kkkk####",
"jjjj####ddddddddeeeeffffffffeeeeeeeeeeeeeeeeeeeedddd####kkkk####",
"jjjj####ddddddddeeeeffffffffeeeeeeeeeeeeeeeeeeeedddd####kkkk####",
"jjjj####ddddddddeeeeffffffffeeeeeeeeeeeeeeeeeeeedddd####kkkk####",
"llllmmmmnnnnddddddddeeeeeeeeeeeeeeeeeeeeeeeeeeeeddddnnnn########",
"llllmmmmnnnnddddddddeeeeeeeeeeeeeeeeeeeeeeeeeeeeddddnnnn########",
"llllmmmmnnnnddddddddeeeeeeeeeeeeeeeeeeeeeeeeeeeeddddnnnn########",
"llllmmmmnnnnddddddddeeeeeeeeeeeeeeeeeeeeeeeeeeeeddddnnnn########",
"mmmmmmmmnnnnnnnnnnnnddddddddddddeeeeddddddddddddddddnnnn########",
"mmmmmmmmnnnnnnnnnnnnddddddddddddeeeeddddddddddddddddnnnn########",
"mmmmmmmmnnnnnnnnnnnnddddddddddddeeeeddddddddddddddddnnnn########",
"mmmmmmmmnnnnnnnnnnnnddddddddddddeeeeddddddddddddddddnnnn########",
"mmmmmmmmnnnnnnnnnnnnnnnnddddddddddddddddddddddddoooobbbb########",
"mmmmmmmmnnnnnnnnnnnnnnnnddddddddddddddddddddddddoooobbbb########",
"mmmmmmmmnnnnnnnnnnnnnnnnddddddddddddddddddddddddoooobbbb########",
"mmmmmmmmnnnnnnnnnnnnnnnnddddddddddddddddddddddddoooobbbb########",
"mmmmmmmmnnnnnnnnnnnnnnnnddddddddeeeennnnddddppppppppbbbbqqqq####",
"mmmmmmmmnnnnnnnnnnnnnnnnddddddddeeeennnnddddppppppppbbbbqqqq####",
"mmmmmmmmnnnnnnnnnnnnnnnnddddddddeeeennnnddddppppppppbbbbqqqq####",
"mmmmmmmmnnnnnnnnnnnnnnnnddddddddeeeennnnddddppppppppbbbbqqqq####",
"mmmmmmmmnnnnnnnnnnnnnnnnnnnnddddeeeerrrrddddrrrrrrrrbbbbssss....",
"mmmmmmmmnnnnnnnnnnnnnnnnnnnnddddeeeerrrrddddrrrrrrrrbbbbssss....",
"mmmmmmmmnnnnnnnnnnnnnnnnnnnnddddeeeerrrrddddrrrrrrrrbbbbssss....",
"mmmmmmmmnnnnnnnnnnnnnnnnnnnnddddeeeerrrrddddrrrrrrrrbbbbssss....",
"mmmmmmmmnnnnnnnnpppprrrrrrrrddddpppprrrrrrrrmmmmrrrr####tttt....",
"mmmmmmmmnnnnnnnnpppprrrrrrrrddddpppprrrrrrrrmmmmrrrr####tttt....",
"mmmmmmmmnnnnnnnnpppprrrrrrrrddddpppprrrrrrrrmmmmrrrr####tttt....",
"mmmmmmmmnnnnnnnnpppprrrrrrrrddddpppprrrrrrrrmmmmrrrr####tttt....",
"mmmmmmmmnnnnnnnnpppppppprrrrrrrrrrrrrrrrrrrruuuurrrrmmmmjjjj....",
"mmmmmmmmnnnnnnnnpppppppprrrrrrrrrrrrrrrrrrrruuuurrrrmmmmjjjj....",
"mmmmmmmmnnnnnnnnpppppppprrrrrrrrrrrrrrrrrrrruuuurrrrmmmmjjjj....",
"mmmmmmmmnnnnnnnnpppppppprrrrrrrrrrrrrrrrrrrruuuurrrrmmmmjjjj....",
"mmmmvvvv####nnnnnnnnpppppppppppprrrrppppoooooooommmmwwwwmmmm....",
"mmmmvvvv####nnnnnnnnpppppppppppprrrrppppoooooooommmmwwwwmmmm....",
"mmmmvvvv####nnnnnnnnpppppppppppprrrrppppoooooooommmmwwwwmmmm....",
"mmmmvvvv####nnnnnnnnpppppppppppprrrrppppoooooooommmmwwwwmmmm....",
"....####vvvvmmmmmmmmmmmmmmmmmmmmmmmm############xxxxmmmm........",
"....####vvvvmmmmmmmmmmmmmmmmmmmmmmmm############xxxxmmmm........",
"....####vvvvmmmmmmmmmmmmmmmmmmmmmmmm############xxxxmmmm........",
"....####vvvvmmmmmmmmmmmmmmmmmmmmmmmm############xxxxmmmm........",
"........mmmmmmmmmmmmuuuummmmuuuuyyyy####yyyymmmmllll............",
"........mmmmmmmmmmmmuuuummmmuuuuyyyy####yyyymmmmllll............",
"........mmmmmmmmmmmmuuuummmmuuuuyyyy####yyyymmmmllll............",
"........mmmmmmmmmmmmuuuummmmuuuuyyyy####yyyymmmmllll............",
"............mmmmmmmmyyyymmmmzzzzAAAA####zzzzmmmmmmmm............",
"............mmmmmmmmyyyymmmmzzzzAAAA####zzzzmmmmmmmm............",
"............mmmmmmmmyyyymmmmzzzzAAAA####zzzzmmmmmmmm............",
"............mmmmmmmmyyyymmmmzzzzAAAA####zzzzmmmmmmmm............",
"............mmmmmmmmyyyy####BBBBBBBBbbbbAAAAmmmmmmmm............",
"............mmmmmmmmyyyy####BBBBBBBBbbbbAAAAmmmmmmmm............",
"............mmmmmmmmyyyy####BBBBBBBBbbbbAAAAmmmmmmmm............",
"............mmmmmmmmyyyy####BBBBBBBBbbbbAAAAmmmmmmmm............",
"............mmmmmmmmuuuu####CCCCBBBBbbbbzzzzmmmmmmmm............",
"............mmmmmmmmuuuu####CCCCBBBBbbbbzzzzmmmmmmmm............",
"............mmmmmmmmuuuu####CCCCBBBBbbbbzzzzmmmmmmmm............",
"............mmmmmmmmuuuu####CCCCBBBBbbbbzzzzmmmmmmmm............",
"............llllmmmmzzzzyyyy########yyyyAAAAmmmmmmmm............",
"............llllmmmmzzzzyyyy########yyyyAAAAmmmmmmmm............",
"............llllmmmmzzzzyyyy########yyyyAAAAmmmmmmmm............",
"............llllmmmmzzzzyyyy########yyyyAAAAmmmmmmmm............",
"............jjjj####mmmmmmmmDDDDDDDDDDDDmmmmEEEEmmmm............",
"............jjjj####mmmmmmmmDDDDDDDDDDDDmmmmEEEEmmmm............",
"............jjjj####mmmmmmmmDDDDDDDDDDDDmmmmEEEEmmmm............",
"............jjjj####mmmmmmmmDDDDDDDDDDDDmmmmEEEEmmmm............",
"............####FFFFmmmmDDDDGGGGGGGGGGGGmmmmmmmm................",
"............####FFFFmmmmDDDDGGGGGGGGGGGGmmmmmmmm................",
"............####FFFFmmmmDDDDGGGGGGGGGGGGmmmmmmmm................",
"............####FFFFmmmmDDDDGGGGGGGGGGGGmmmmmmmm................",
"................mmmmmmmmuuuuuuuuuuuummmmHHHHmmmm................",
"................mmmmmmmmuuuuuuuuuuuummmmHHHHmmmm................",
"................mmmmmmmmuuuuuuuuuuuummmmHHHHmmmm................",
"................mmmmmmmmuuuuuuuuuuuummmmHHHHmmmm................",
"................mmmmIIIImmmmmmmmmmmmIIIImmmm....................",
"................mmmmIIIImmmmmmmmmmmmIIIImmmm....................",
"................mmmmIIIImmmmmmmmmmmmIIIImmmm....................",
"................mmmmIIIImmmmmmmmmmmmIIIImmmm...................."};
