/* XPM */
static char *dummy[]={
"32 32 6 1",
". c None",
"# c None",
"d c #000000",
"a c #3a0911",
"c c #811426",
"b c #a11b31",
"................................",
"................................",
"................................",
"................................",
"...........##aaaaa..............",
"............abbbbba.............",
"...........abbccccba............",
"...........abccccccba...........",
"...........accccccccba..........",
".......#...accccccccba..........",
".......#...accccccccba..........",
".......#...accccccccba..........",
".......#...accccccccca..........",
"...........accccccccca..........",
"...........acccccccca...........",
"...........#acccccca............",
"...........accbbbbbca...........",
"...........acbbbbbbbca..........",
"...........acbbbbbbbca..........",
"...........acbbbbbbbba..........",
"...........acbbbbbbbba..........",
"..........acbbbbcbbbbca.........",
"..........acbbbbcbbbbca.........",
"..........acbbbcacbbcca.........",
".......#.acbcbccaccbcca.........",
".......#.accbccadacccca.........",
".......#.accccaddaccaca.........",
".........acaccadddacca..........",
".........#a.aaa..daaa...........",
"............dd....d.............",
".............d....d.............",
".............d....d............."};
