/* XPM */
static char *result[] = {
/* columns rows colors chars-per-pixel */
"32 32 6 1 ",
"  c black",
". c #3A0911",
"X c #811426",
"o c #A11B31",
"O c white",
"+ c None",
/* pixels */
"++++++++++++++++++++++++++++++++",
"++++++++++++++++++++++++++++++++",
"++++++++++++.......+++++++++++++",
"+++++++++++.Xoooooo.++++++++++++",
"++++++++++.Xooo....o.+++++++++++",
"+++++++++.Xooo.    .o.++++++++++",
"+++++++++.Xoo.      .o.+++++++++",
"++++++++.XXoo.      .o.+++++++++",
"++++++++.XXXo. O   O.o.+++++++++",
"++++++++.X.Xo. O   O.o.+++++++++",
"+++++++++..Xo.      .X.+++++++++",
"++++++++++.XXo.     .X.+++++++++",
"+++++++++++.XXX.   .X.++++++++++",
"++++++++++.X..XX...X.+++++++++++",
"+++++++++.XoooooooooX.++++++++++",
"+++++++++.XoooooooooX.++++++++++",
"++++++++.Xooooooooooo.++++++++++",
"++++++++.Xooooooooooo.++++++++++",
"++++++++.XooooooXooooX.+++++++++",
"+++++++.XXoooooX.XooXX.+++++++++",
"+++++++.XXXoXoXX.XXoXX.+++++++++",
"+++++++.XXXXoXX. .XXX.++++++++++",
"+++++++.X.XXXX.  .XX..++++++++++",
"++++++++....XX.   .XX.++++++++++",
"++++++++++++...   ...+++++++++++",
"++++++++++++++    ++++++++++++++",
"+++++++++++++++  +++++++++++++++",
"++++++++++++++ + +++++++++++++++",
"++++++++++++++++ +++++++++++++++",
"++++++++++++++++++++++++++++++++",
"++++++++++++++++++++++++++++++++",
"++++++++++++++++++++++++++++++++"
};
